<?xml version="1.0" standalone="no"?>
<!DOCTYPE svg PUBLIC "-//W3C//DTD SVG 1.1//EN" "http://www.w3.org/Graphics/SVG/1.1/DTD/svg11.dtd" >
<!--
2013-9-30: Created.
-->
<svg>
<metadata>
Created by iconfont
</metadata>
<defs>

<font id="iconfont" horiz-adv-x="1024" >
  <font-face
    font-family="iconfont"
    font-weight="500"
    font-stretch="normal"
    units-per-em="1024"
    ascent="896"
    descent="-128"
  />
    <missing-glyph />
    
    <glyph glyph-name="x" unicode="x" horiz-adv-x="1001"
d="M281 543q-27 -1 -53 -1h-83q-18 0 -36.5 -6t-32.5 -18.5t-23 -32t-9 -45.5v-76h912v41q0 16 -0.5 30t-0.5 18q0 13 -5 29t-17 29.5t-31.5 22.5t-49.5 9h-133v-97h-438v97zM955 310v-52q0 -23 0.5 -52t0.5 -58t-10.5 -47.5t-26 -30t-33 -16t-31.5 -4.5q-14 -1 -29.5 -0.5
t-29.5 0.5h-32l-45 128h-439l-44 -128h-29h-34q-20 0 -45 1q-25 0 -41 9.5t-25.5 23t-13.5 29.5t-4 30v167h911zM163 247q-12 0 -21 -8.5t-9 -21.5t9 -21.5t21 -8.5q13 0 22 8.5t9 21.5t-9 21.5t-22 8.5zM316 123q-8 -26 -14 -48q-5 -19 -10.5 -37t-7.5 -25t-3 -15t1 -14.5
t9.5 -10.5t21.5 -4h37h67h81h80h64h36q23 0 34 12t2 38q-5 13 -9.5 30.5t-9.5 34.5q-5 19 -11 39h-368zM336 498v228q0 11 2.5 23t10 21.5t20.5 15.5t34 6h188q31 0 51.5 -14.5t20.5 -52.5v-227h-327z" />
    

    
    <glyph glyph-name="ganga" unicode="&#58884;" d="M512 832.512q93.184 0 174.592-35.328t142.336-95.744 96.256-142.336 35.328-174.08q0-93.184-35.328-174.592t-96.256-142.336-142.336-96.256-174.592-35.328q-92.16 0-174.08 35.328t-142.336 96.256-95.744 142.336-35.328 174.592q0 92.16 35.328 174.08t95.744 142.336 142.336 95.744 174.08 35.328zM446.464 577.536l-192.512 0 0-64.512 192.512 0 0 64.512zM638.976 449.536l-64.512 0 0-128 64.512 0 0 128zM766.976 449.536l-64.512 0 0-128 64.512 0 0 128zM766.976 577.536l-192.512 0 0-64.512 192.512 0 0 64.512zM894.976 321.536l0 256-64.512 0 0-256 64.512 0z"  horiz-adv-x="1024" />

    
    <glyph glyph-name="dafawuliao" unicode="&#58915;" d="M1003.008 672.864c-11.328 26.752-27.776 50.88-48 71.168s-44.352 36.672-71.168 48-56.256 17.6-87.168 17.6c-28.032 0-54.72-5.184-79.36-14.592-24.64-9.344-47.104-23.04-66.688-40C630.976 738.08 614.528 717.664 601.728 694.88 589.056 672.032 580.224 646.816 576.064 620L35.072 620c0 0-0.064 0-0.064 0-17.6 0-31.936-12.288-32-29.952 0-10.816 5.696-19.264 13.952-24.512L384 159.776 384-148 256-148l0-64 320 0 0 64L448-148l0 307.328 375.936 401.536c9.344 5.504 16 15.296 16.064 27.008C840.064 605.536 825.728 620 808.128 620l-164.224 0c3.968 17.472 10.752 33.856 20.032 48.64s20.864 27.904 34.304 38.784 28.672 19.648 45.312 25.664c16.576 6.016 34.496 9.28 53.12 9.28 21.632 0 42.24-4.352 60.928-12.352 18.752-7.936 35.712-19.392 49.856-33.6 14.208-14.208 25.664-31.104 33.6-49.792 7.936-18.752 12.288-39.36 12.288-60.992s-4.352-42.24-12.288-60.992C933.12 505.952 921.6 489.056 907.456 474.848c-14.208-14.208-31.104-25.664-49.856-33.6-18.688-8-39.296-12.352-60.928-12.352-2.496 0-5.056 0.064-7.552 0.192-2.432 0.128-4.928 0.32-7.36 0.576s-4.928 0.576-7.36 0.96l-19.328-64.896C759.232 364.896 763.648 364.192 768 363.616c2.496-0.32 4.992-0.64 7.488-0.896 6.976-0.704 14.016-1.088 21.12-1.088 30.912 0 60.352 6.272 87.168 17.6s50.944 27.776 71.168 48c20.224 20.224 36.672 44.416 48 71.168 11.392 26.816 17.6 56.256 17.6 87.168S1014.4 646.048 1003.008 672.864zM732.032 556.384 416.384 219.232 108.608 559.584 732.032 556.384z"  horiz-adv-x="1024" />

    
    <glyph glyph-name="wanchenggouxuan" unicode="&#58942;" d="M960.609667 129.184846C915.369476 47.686667 851.995706-15.514088 770.492796-60.497865 688.871881-105.483712 603.617094-128 514.566068-128 425.518886-128 340.146391-105.483712 258.643184-60.497865 177.02227-15.514088 113.534933 47.686667 68.132375 129.184846 22.729817 210.566795-2.0e-06 295.452487-2.0e-06 383.607688-2.0e-06 472.779676 23.066676 558.335536 69.151527 640.504179 115.228098 722.56783 179.401869 785.663595 261.708627 829.793543 343.897972 873.93473 428.235049 896 514.566068 896 600.88851 896 685.124145 873.93473 767.427353 829.793543 849.616403 785.663595 913.67631 722.56783 959.58667 640.504179 1005.500874 558.335536 1028.449843 472.779676 1028.449843 383.607688 1028.449843 295.452487 1005.837733 210.566795 960.609667 129.184846ZM885.615313 597.726101C847.237099 666.243248 793.734261 718.949928 725.151162 755.808582 656.551797 792.657772 586.332317 811.116082 514.566068 811.116082 442.292017 811.116082 372.011612 792.657772 303.647959 755.808582 235.284011 718.949928 181.781173 666.243248 143.183513 597.726101 104.582008 529.20718 85.24266 457.823038 85.24266 383.665655 85.24266 309.899549 104.232728 239.244134 142.103436 171.627544 180.075882 104.01125 233.136279 51.30457 301.268656 13.487096 369.401032-24.204684 440.481143-43.114604 514.566068-43.114604 588.598053-43.114604 659.734948-24.204684 727.867325 13.487096 795.995857 51.30457 848.94239 104.01125 886.638606 171.627544 924.330682 239.244134 943.207182 309.899549 943.207182 383.665655 943.207182 457.823038 923.981402 529.20718 885.615313 597.726101ZM479.35178 62.556651C405.257096 179.965606 318.088515 269.420922 257.067432 297.376633L400.89775 409.195925 470.637229 235.875253C470.637229 235.875253 583.956858 588.106261 762.656916 705.515512 758.301415 621.652226 740.864918 548.968858 771.375312 459.513542 692.921282 437.149565 531.654467 185.557636 479.35178 62.556651Z"  horiz-adv-x="1029" />

    
    <glyph glyph-name="z045" unicode="&#58929;" d="M498.095 749.866l403.416-403.415c17.387-17.387 45.576-17.387 62.963 0s17.387 45.576 0 62.963l-464.586 464.586-464.586-464.586c-17.388-17.387-17.388-45.575 0-62.963 17.387-17.387 45.576-17.387 62.964 0l399.829 403.415zM498.817 303.927l402.693-402.693c17.387-17.387 45.576-17.387 62.963 0s17.387 45.576 0 62.963l-464.585 464.584-464.586-464.585c-17.388-17.387-17.388-45.576 0-62.963 17.387-17.387 45.576-17.387 62.964 0l400.551 402.694z"  horiz-adv-x="1024" />

    
    <glyph glyph-name="iconset0466" unicode="&#59225;" d="M384 256c-23.466667 0-42.666667-19.2-42.666667-42.666667 0-23.466667 19.2-42.666667 42.666667-42.666667s42.666667 19.2 42.666667 42.666667C426.666667 236.8 407.466667 256 384 256zM256 42.666667c-23.466667 0-42.666667-19.2-42.666667-42.666667 0-23.466667 19.2-42.666667 42.666667-42.666667s42.666667 19.2 42.666667 42.666667C298.666667 23.466667 279.466667 42.666667 256 42.666667zM170.666667 170.666667c-23.466667 0-42.666667-19.2-42.666667-42.666667s19.2-42.666667 42.666667-42.666667 42.666667 19.2 42.666667 42.666667S194.133333 170.666667 170.666667 170.666667zM512 85.333333c-23.466667 0-42.666667-19.2-42.666667-42.666667s19.2-42.666667 42.666667-42.666667 42.666667 19.2 42.666667 42.666667S535.466667 85.333333 512 85.333333zM725.333333 0c-23.466667 0-42.666667-19.2-42.666667-42.666667s19.2-42.666667 42.666667-42.666667 42.666667 19.2 42.666667 42.666667S748.8 0 725.333333 0zM725.333333 170.666667c0 23.466667-19.2 42.666667-42.666667 42.666667s-42.666667-19.2-42.666667-42.666667c0-23.466667 19.2-42.666667 42.666667-42.666667S725.333333 147.2 725.333333 170.666667zM853.333333 633.6c0 2.133333 0 4.266667 0 6.4 0 70.4-57.6 128-128 128-32 0-61.866667-12.8-83.2-32C595.2 806.4 516.266667 853.333333 426.666667 853.333333 298.666667 853.333333 192 759.466667 172.8 635.733333 98.133333 616.533333 42.666667 550.4 42.666667 469.333333c0-93.866667 76.8-170.666667 170.666667-170.666667l597.333333 0c93.866667 0 170.666667 76.8 170.666667 170.666667C981.333333 548.266667 925.866667 616.533333 853.333333 633.6zM810.666667 341.333333 213.333333 341.333333c-70.4 0-128 57.6-128 128 0 59.733333 40.533333 110.933333 98.133333 123.733333 17.066667 4.266667 29.866667 17.066667 32 36.266667C230.4 731.733333 322.133333 810.666667 426.666667 810.666667c72.533333 0 117.333333-14.933333 157.866667-76.8 6.4-10.666667 38.4-38.4 51.2-40.533333 2.133333 0 6.4 0 6.4 0 10.666667 0 19.2 4.266667 27.733333 10.666667C684.8 716.8 704 725.333333 725.333333 725.333333c46.933333 0 85.333333-38.4 85.333333-85.333333l0-2.133333c0-19.2 12.8-38.4 32-42.666667 57.6-14.933333 96-66.133333 96-123.733333C938.666667 398.933333 881.066667 341.333333 810.666667 341.333333zM853.333333 128c-23.466667 0-42.666667-19.2-42.666667-42.666667 0-23.466667 19.2-42.666667 42.666667-42.666667s42.666667 19.2 42.666667 42.666667C896 108.8 876.8 128 853.333333 128z"  horiz-adv-x="1024" />

    
    <glyph glyph-name="049jiandanbianli" unicode="&#58930;" d="M653.76 461.53c37.149 0 67.198 30.091 67.198 67.189 0 37.107-30.049 67.189-67.198 67.189-37.099 0-67.18-30.082-67.18-67.189 0-37.098 30.081-67.189 67.18-67.189v0zM370.239 461.53c37.15 0 67.18 30.091 67.18 67.189 0 37.107-30.031 67.189-67.18 67.189-37.115 0-67.198-30.082-67.198-67.189 0-37.098 30.083-67.189 67.198-67.189v0zM678.957 322.63c-25.407-67.521-90.51-115.56-166.905-115.56-76.43 0-141.604 48.065-167.028 115.62l-45.613 25.817-36.591-49.182c35.702-103.293 133.786-177.444 249.179-177.444 115.482 0 213.567 74.161 249.251 177.48l-36.558 49.146-45.735-25.877zM511.998 830.71c-246.702 0-446.709-200.007-446.709-446.709 0-246.703 200.007-446.71 446.709-446.71 246.755 0 446.711 200.007 446.711 446.71-0 246.702-199.956 446.709-446.711 446.709v0zM511.998 25.901c-197.755 0-358.1 160.317-358.1 358.1 0 197.747 160.344 358.1 358.1 358.1 197.792 0 358.101-160.353 358.101-358.1-0-197.783-160.309-358.1-358.101-358.1v0zM511.998 25.901z"  horiz-adv-x="1024" />

    
    <glyph glyph-name="zanting" unicode="&#59082;" d="M512-128c-282.304 0-512 229.696-512 512s229.696 512 512 512c282.304 0 512-229.696 512-512 0-282.304-229.696-512-512-512v0zM512 847.232c-255.424 0-463.232-207.808-463.232-463.232s207.808-463.168 463.232-463.168c255.424 0 463.168 207.744 463.168 463.168 0 255.424-207.744 463.232-463.168 463.232v0zM384 712c33.984 0 64-27.648 64-61.632v-506.112c0-33.984-30.016-61.632-63.936-61.632v0c-34.048 0-64.064 27.648-64.064 61.632v506.112c0 34.048 29.888 61.632 64 61.632v0 0zM640 712c33.984 0 64-27.648 64-61.632v-506.112c0-33.984-30.016-61.632-64-61.632v0c-33.984 0-64 27.648-64 61.632v506.112c0 34.048 29.888 61.632 64 61.632v0 0zM642.688 712z"  horiz-adv-x="1024" />

    
    <glyph glyph-name="dakaiopen127" unicode="&#58981;" d="M730.35776 101.5808c19.07712 0 41.48224 12.3392 49.64352 29.16352l158.72 300.35968c9.49248 18.2784-4.31104 29.16352-29.16352 29.16352L749.28128 460.26752l0 71.77216c0 24.77056-20.15232 44.92288-44.92288 44.92288L311.98208 576.96256l-29.11232 76.41088c-3.03104 7.936-10.63936 13.18912-19.13856 13.18912L104.5504 666.56256c-5.44768 0-10.68032-2.17088-14.53056-6.0416-3.84-3.87072-5.98016-9.10336-5.94944-14.56128l0.38912-113.92L83.68128 146.37056c0-24.77056 20.15232-44.92288 44.92288-44.92288M708.32128 460.25728l-349.4912 0c-16.10752 0-31.34464-13.01504-39.40352-29.16352L176.72192 142.40768l-48.11776 0c-2.18112 0-3.96288 1.78176-3.96288 3.96288L124.64128 532.15232l-0.02048 93.44 124.99968 0 29.11232-76.41088c3.03104-7.936 10.63936-13.18912 19.13856-13.18912l406.48704 0c2.18112 0 3.96288-1.78176 3.96288-3.96288L708.32128 460.25728z"  horiz-adv-x="1024" />

    
    <glyph glyph-name="xubizui" unicode="&#58905;" d="M511.674589 831.65553c-247.041466 0-447.308629-200.267163-447.308629-447.308629s200.267163-447.308629 447.308629-447.308629 447.308629 200.267163 447.308629 447.308629S758.716055 831.65553 511.674589 831.65553zM928.284031 384.346901c0-56.255235-11.010775-110.811782-32.726356-162.154124-20.98187-49.605791-51.025117-94.163613-89.295745-132.433218-38.270629-38.270629-82.827427-68.313875-132.433218-89.295745-51.342342-21.715581-105.898889-32.726356-162.154124-32.726356s-110.811782 11.010775-162.154124 32.726356c-49.605791 20.98187-94.163613 51.025117-132.433218 89.295745-38.270629 38.270629-68.313875 82.827427-89.295745 132.433218-21.715581 51.342342-32.726356 105.898889-32.726356 162.154124s11.010775 110.811782 32.726356 162.154124c20.98187 49.605791 51.025117 94.16259 89.295745 132.433218 38.270629 38.270629 82.827427 68.313875 132.433218 89.295745 51.342342 21.715581 105.898889 32.726356 162.154124 32.726356s110.811782-11.010775 162.154124-32.726356c49.605791-20.98187 94.16259-51.025117 132.433218-89.295745 38.270629-38.270629 68.313875-82.827427 89.295745-132.433218C917.273257 495.158682 928.284031 440.602136 928.284031 384.346901zM364.379894 501.354801m-46.514383 0a45.455 45.455 0 1 0 93.028766 0 45.455 45.455 0 1 0-93.028766 0ZM658.96826 501.354801m-46.514383 0a45.455 45.455 0 1 0 93.028766 0 45.455 45.455 0 1 0-93.028766 0ZM641.201617 286.008198 511.674589 194.577836 382.14756 286.008198 364.443339 260.926964 485.056348 175.788911 364.443339 90.649835 382.14756 65.5686 511.674589 156.999986 641.201617 65.5686 658.904815 90.649835 538.291806 175.788911 658.904815 260.926964Z"  horiz-adv-x="1024" />

    
    <glyph glyph-name="bianji2" unicode="&#59177;" d="M858.24 663.04l-132.48 133.12c-48.64 48.64-128 48.64-177.28 0l-460.8-461.44C72.32 318.72 64 298.24 64 277.12l0-211.84c0-42.24 21.76-64 64-64l213.76 1.28c21.76 0 42.24 8.96 56.96 23.68l459.52 460.8C907.52 535.04 907.52 614.4 858.24 663.04zM333.44 65.92 128 64.64 128 268.8c0 3.84 1.28 7.68 1.92 11.52 1.28-4.48 3.84-8.32 7.04-12.16l193.28-193.28c3.84-3.84 7.68-5.76 12.16-7.04C339.2 67.2 336.64 65.92 333.44 65.92zM382.08 97.28c0 7.68-3.2 14.72-8.96 20.48L179.84 311.04c-5.12 5.12-12.16 7.68-19.2 8.32l312.32 312.32 221.44-221.44L382.08 97.28zM814.08 530.56l-72.32-72.96L520.32 679.04l72.96 72.96c24.32 24.32 64 24.32 88.32 0l132.48-133.12C838.4 594.56 838.4 554.88 814.08 530.56z"  horiz-adv-x="1024" />

    
    <glyph glyph-name="xiazai47" unicode="&#58908;" d="M408.039162-94.5c-127.55 0-228.399 37.292-299.745 110.839C-1.607838 129.632-0.248838 287.494 0.039162 299.914L0.039162 535.5l816 0 0-241.584c0.287-12.32 1.568-166-106.443-277.4C638.173162-57.149 536.714162-94.5 408.039162-94.5zM64.039162 471.5l0-172.486-0.015-0.485c-0.007-0.292-0.807-36.484 10.326-84.192 10.002-42.859 32.05-104.344 80.29-153.855 58.818-60.37 144.074-90.98 253.399-90.98 110.43 0 196.285 30.659 255.182 91.127 47.297 48.558 68.91 108.434 78.713 150.113 10.912 46.394 10.128 81.494 10.118 81.844l-0.015 0.494 0.002 0.422 0 178L64.039162 471.502zM164.689162 590.308c-21.38 0-52.861 2.453-75.588 24.338-10.228 9.85-22.531 27.783-23.058 57.282-0.371 20.785 6.371 38.588 20.038 52.917 10.327 10.826 22.761 17.728 33.731 23.817 21.512 11.94 26.607 16.168 27.26 30.313 0.368 7.966-1.971 11.408-4.306 13.725-10.549 10.464-38.413 13.537-50.992 12.847l-3.473 63.906c6.593 0.357 65.418 2.524 99.534-31.314 16.287-16.154 24.298-37.633 23.168-62.114-1.045-22.654-8.948-41.907-23.488-57.225-11.549-12.167-24.881-19.567-36.645-26.096-20.981-11.646-20.948-13.497-20.838-19.632 0.108-6.071 1.273-10.217 3.461-12.325 7.238-6.969 29.729-6.522 39.328-6.332 2.328 0.046 4.441 0.085 6.288 0.085l0-64c-1.473 0-3.16-0.036-5.017-0.073C171.270162 590.371 168.107162 590.308 164.689162 590.308zM412.396162 590.308c-21.38 0-52.861 2.453-75.588 24.338-10.228 9.85-22.531 27.783-23.058 57.282-0.371 20.785 6.371 38.588 20.038 52.917 10.327 10.826 22.761 17.728 33.731 23.817 21.512 11.94 26.607 16.168 27.26 30.313 0.368 7.966-1.971 11.408-4.306 13.725-10.55 10.464-38.411 13.537-50.992 12.847l-3.473 63.906c6.593 0.357 65.418 2.524 99.534-31.314 16.287-16.154 24.298-37.633 23.168-62.114-1.045-22.654-8.948-41.907-23.488-57.225-11.549-12.167-24.881-19.567-36.645-26.096-20.981-11.646-20.948-13.497-20.838-19.632 0.108-6.071 1.273-10.217 3.461-12.325 7.238-6.969 29.727-6.522 39.328-6.332 2.328 0.046 4.441 0.085 6.288 0.085l0-64c-1.473 0-3.16-0.036-5.017-0.073C418.977162 590.371 415.814162 590.308 412.396162 590.308zM674.674162 590.308c-21.38 0-52.862 2.455-75.588 24.339-10.228 9.849-22.53 27.782-23.058 57.282-0.371 20.785 6.371 38.588 20.038 52.917 10.327 10.826 22.761 17.728 33.731 23.817 21.512 11.94 26.606 16.168 27.26 30.313 0.367 7.966-1.971 11.408-4.306 13.725-10.551 10.464-38.416 13.538-50.992 12.847l-3.473 63.906c6.594 0.356 65.416 2.526 99.534-31.314 16.286-16.154 24.298-37.633 23.168-62.114-1.045-22.654-8.948-41.907-23.488-57.225-11.549-12.167-24.881-19.567-36.644-26.096-20.981-11.646-20.948-13.497-20.839-19.632 0.108-6.07 1.272-10.217 3.461-12.324 7.239-6.97 29.727-6.524 39.329-6.333 2.327 0.046 4.44 0.085 6.287 0.085l0-64c-1.474 0-3.159-0.036-5.017-0.073C681.254162 590.371 678.093162 590.308 674.674162 590.308zM891.622162 269.811c-73.612 0-133.5 59.888-133.5 133.5 0 73.612 59.888 133.5 133.5 133.5s133.5-59.888 133.5-133.5C1025.122162 329.698 965.234162 269.811 891.622162 269.811zM891.622162 472.811c-38.322 0-69.5-31.178-69.5-69.5 0-38.323 31.178-69.5 69.5-69.5s69.5 31.178 69.5 69.5C961.122162 441.633 929.944162 472.811 891.622162 472.811z"  horiz-adv-x="1026" />

    
    <glyph glyph-name="xiaolianchenggong" unicode="&#59034;" d="M512 896C229.681466 896 0 666.318534 0 384c0-282.318534 229.681466-512 512-512 282.360128 0 512.062391 229.681466 512.062391 512C1024.062391 666.318534 794.360128 896 512 896L512 896zM512-85.324668c-258.797189 0-469.345465 210.527479-469.345465 469.324668 0 258.797189 210.527479 469.345465 469.345465 469.345465 258.838783 0 469.387059-210.527479 469.387059-469.345465C981.387059 125.202811 770.838783-85.324668 512-85.324668L512-85.324668zM512-85.324668M755.449043 267.141964c-11.126366 3.95142-23.292579-1.788537-27.285592-12.894106-32.568017-90.882652-119.35367-151.96328-215.997075-151.96328-96.996954 0-183.907389 61.41338-216.267436 152.815955-3.930623 11.126366-16.096836 16.88712-27.243999 12.998091-11.084772-3.930623-16.928714-16.13843-12.998091-27.243999 38.370364-108.414477 141.460823-181.224583 256.488728-181.224583 114.570372 0 217.515252 72.414964 256.155977 180.226329C772.315366 250.920346 766.533815 263.169747 755.449043 267.141964L755.449043 267.141964zM755.449043 267.141964M313.909095 557.779276c42.862505 0 77.780576-42.238596 77.780576-94.147772 0-11.771071 9.566595-21.337666 21.337666-21.337666 11.771071 0 21.337666 9.566595 21.337666 21.337666 0 75.430521-54.030464 136.823104-120.435111 136.823104s-120.414314-61.392583-120.414314-136.823104c0-11.771071 9.566595-21.337666 21.337666-21.337666 11.771071 0 21.337666 9.566595 21.337666 21.337666C236.128519 515.561477 271.004996 557.779276 313.909095 557.779276L313.909095 557.779276zM313.909095 557.779276M710.153296 600.433811c-66.38385 0-120.435111-61.392583-120.435111-136.823104 0-11.771071 9.566595-21.337666 21.337666-21.337666 11.771071 0 21.337666 9.566595 21.337666 21.337666 0 51.909176 34.897274 94.147772 77.780576 94.147772 42.883302 0 77.738982-42.238596 77.738982-94.147772 0-11.771071 9.566595-21.337666 21.337666-21.337666 11.771071 0 21.337666 9.566595 21.337666 21.337666C830.588407 539.082822 776.57874 600.433811 710.153296 600.433811L710.153296 600.433811zM710.153296 600.433811"  horiz-adv-x="1025" />

    
    <glyph glyph-name="ai-link" unicode="&#58909;" d="M333.062 162.938c-58.348-52.21-97.040-49.051-136.467-9.492l-45.156 48.463c-39.428 39.542-39.428 103.667 0 143.226l193.261 193.849c39.427 39.559 103.356 39.559 142.784 0l35.68-35.794c30.458-30.556 37.399-75.763 20.802-112.998l86.286-66.040c59.149 59.33 59.149 155.518 0 214.831l-107.088 107.416c-59.134 59.33-155.010 59.33-214.161 0l-264.652-265.471c-59.134-59.314-59.134-155.502 0-214.831l107.088-107.415c59.134-59.314 155.027-59.314 214.177 0l102.162 105.647-72.98 70.034-61.735-71.425zM987.196 610.605l-107.073 107.415c-59.149 59.33-155.027 59.33-214.177 0 0 0 4.223 1.064-57.989-61.343l71.114-68.168 31.605 34.877c39.428 39.542 103.357 39.542 142.784 0l35.696-35.811c39.428-39.542 39.428-103.667 0-143.226l-174.338-181.198c-39.428-39.542-103.341-39.542-142.769 0l-29.395 48.463c-61.883 46.253-42.865 57.317-37.612 88.545l-78.495 77.71c-59.15-59.33-59.15-155.518 0-214.831l107.073-107.433c59.149-59.313 155.027-59.313 214.177 0l239.398 240.167c84.387 97.302 0 214.832 0 214.832z"  horiz-adv-x="1025" />

    
    <glyph glyph-name="wancheng" unicode="&#59043;" d="M512.186242 889.860163c-278.100856 0-504.362043-226.261187-504.362043-504.362043S234.085386-118.863922 512.186242-118.863922s504.362043 226.261187 504.362043 504.362043S790.287097 889.860163 512.186242 889.860163zM794.409998 482.200556 466.418872 145.959535c-7.838525-8.023744-18.590404-12.579503-29.816073-12.642948l-0.227174 0c-11.141758 0-21.834284 4.433986-29.715789 12.314467L230.289943 321.961038c-16.420995 16.396435-16.420995 43.013653 0 59.430554 16.416901 16.420995 43.013653 16.420995 59.430554 0l146.32767-146.281621 298.275337 305.866223c16.253172 16.58063 42.891879 16.891715 59.430554 0.655939C810.356179 525.399427 810.646797 498.78221 794.409998 482.200556z"  horiz-adv-x="1024" />

    
    <glyph glyph-name="jiantou" unicode="&#58966;" d="M474.288097 768.950396 857.759815 387.0208l-82.171488-81.8471L392.115586 687.105343 474.288097 768.950396zM857.759815 387.0208 474.288097 5.089158l-82.173534 81.84096L775.588327 468.865853 857.759815 387.0208zM435.55391 444.891835c32.088836 0 58.105373-25.908066 58.105373-57.871035 0-31.958876-26.016537-57.866942-58.105373-57.866942-32.090882 0-58.105373 25.908066-58.105373 57.866942C377.449561 418.983769 403.463028 444.891835 435.55391 444.891835zM241.8707 444.891835c32.092929 0 58.107419-25.908066 58.107419-57.871035 0-31.958876-26.013467-57.866942-58.107419-57.866942-32.088836 0-58.102303 25.908066-58.102303 57.866942C183.768397 418.983769 209.781864 444.891835 241.8707 444.891835z"  horiz-adv-x="1024" />

    
    <glyph glyph-name="chaxun" unicode="&#58907;" d="M933.602 64.53 721.175 278.738c-2.472 2.479-5.204 4.372-7.813 6.435 35.884 55.518 56.836 121.647 56.836 192.878 0 195.694-157.298 354.31-351.461 354.31-194.054 0-351.461-158.616-351.461-354.31 0-195.722 157.407-354.302 351.461-354.302 70.631 0 136.303 21.179 191.459 57.361 2.009-2.692 3.852-5.369 6.283-7.827l212.454-214.235c14.506-14.579 33.396-21.849 52.314-21.849 18.932 0 37.836 7.268 52.328 21.814C962.436-11.824 962.436 35.39 933.602 64.53M418.737 235.63c-132.562 0-240.468 108.767-240.468 242.421 0 133.634 107.907 242.428 240.468 242.428 132.561 0 240.467-108.794 240.467-242.428C659.204 344.398 551.298 235.63 418.737 235.63"  horiz-adv-x="1024" />

    
    <glyph glyph-name="shuangxianyoujiantou" unicode="&#58925;" d="M825.6 716.8 467.2 358.4c-12.8-12.8-25.6-12.8-38.4 0L422.4 364.8c-12.8 12.8-12.8 25.6 0 38.4l358.4 358.4c12.8 12.8 25.6 12.8 38.4 0l6.4-6.4C838.4 742.4 838.4 729.6 825.6 716.8zM467.2 409.6l358.4-358.4c12.8-12.8 12.8-25.6 0-38.4l-6.4-6.4c-12.8-12.8-25.6-12.8-38.4 0L422.4 364.8c-12.8 12.8-12.8 25.6 0 38.4l6.4 6.4C441.6 422.4 454.4 422.4 467.2 409.6zM627.2 716.8 268.8 358.4C256 345.6 243.2 345.6 230.4 358.4L224 364.8c-12.8 12.8-12.8 25.6 0 38.4l358.4 358.4c12.8 12.8 25.6 12.8 38.4 0l6.4-6.4C640 742.4 640 729.6 627.2 716.8zM268.8 409.6l358.4-358.4c12.8-12.8 12.8-25.6 0-38.4l-6.4-6.4c-12.8-12.8-25.6-12.8-38.4 0L224 364.8c-12.8 12.8-12.8 25.6 0 38.4l6.4 6.4C243.2 422.4 256 422.4 268.8 409.6z"  horiz-adv-x="1024" />

    
    <glyph glyph-name="shuangxianzuojiantou" unicode="&#58926;" d="M224 51.2l358.4 358.4c12.8 12.8 25.6 12.8 38.4 0l6.4-6.4c12.8-12.8 12.8-25.6 0-38.4l-358.4-358.4c-12.8-12.8-25.6-12.8-38.4 0l-6.4 6.4C211.2 25.6 211.2 38.4 224 51.2zM582.4 358.4 224 716.8c-12.8 12.8-12.8 25.6 0 38.4l6.4 6.4c12.8 12.8 25.6 12.8 38.4 0l358.4-358.4c12.8-12.8 12.8-25.6 0-38.4L620.8 358.4C608 345.6 588.8 345.6 582.4 358.4zM422.4 51.2l358.4 358.4c12.8 12.8 25.6 12.8 38.4 0l6.4-6.4c12.8-12.8 12.8-25.6 0-38.4l-358.4-358.4c-12.8-12.8-25.6-12.8-38.4 0l-6.4 6.4C409.6 25.6 409.6 38.4 422.4 51.2zM780.8 358.4 422.4 716.8c-12.8 12.8-12.8 25.6 0 38.4l6.4 6.4c12.8 12.8 25.6 12.8 38.4 0l358.4-358.4c12.8-12.8 12.8-25.6 0-38.4l-6.4-6.4C806.4 345.6 793.6 345.6 780.8 358.4z"  horiz-adv-x="1024" />

    
    <glyph glyph-name="bianji" unicode="&#59087;" d="M312.575 362.483l-119.491-241.657c-10.022-27.201 11.769-51.578 38.975-38.961l241.729 119.454c10.426 2.027 20.532 6.062 28.607 14.133l429.431 429.302c21.559 21.55 21.559 56.505 0 78.053l-97.597 97.569c-21.559 21.555-56.519 21.555-78.079 0l-429.437-429.298c-8.071-8.076-12.112-18.173-14.139-28.599v0zM775.667 761.836c10.775 10.779 28.257 10.779 39.036 0l58.56-58.548c10.78-10.774 10.78-28.24 0-39.024l-58.56-58.534-96.201 98.965 57.164 57.14zM677.371 663.572l98.292-96.873-312.314-312.219c-24.933 24.918-19.954 19.949-17.652 17.644l-60.427 60.411c-10.784 10.78-9.15 9.147-19.522 19.514l311.622 311.521zM414.718 225.051l-149.275-90.331c-13.601-6.31-25.804 6.757-19.484 19.484l90.353 149.216 78.404-78.371zM893.029 503.172v-444.148c0-30.489-30.172-55.849-60.656-55.849h-662.522c-30.487 0-55.212 24.715-55.212 55.191v662.316c0 30.484 25.45 60.091 55.938 60.091h444.582v55.523h-444.577c-60.985 0-111.146-54.647-111.146-115.614v-662.314c0-60.955 49.438-110.38 110.416-110.38h662.514c60.985 0 116.235 50.078 116.235 111.037v444.147h-55.571zM893.029 503.172z"  horiz-adv-x="1024" />

    
    <glyph glyph-name="biaoji" unicode="&#59144;" d="M510.684 810.36l142.505-282.025 300.335-39.742-232.751-234.442 63.648-286.223-273.735 157.502-273.723-157.502 63.583 286.223-232.793 234.443 300.442 39.742 142.491 282.023zM510.684 810.36z"  horiz-adv-x="1024" />

    
    <glyph glyph-name="jinjidingdan" unicode="&#58947;" d="M506.772638 508.46187c-4.465606-4.776362-6.425993-10.283203-6.061763-16.407521 0.43183-5.995172 2.511273-13.341326 6.614666-21.790261l41.25994 34.157952c-9.123921 7.222053-17.323646 10.892608-24.304561 11.260874C517.426125 516.052189 511.488463 513.603471 506.772638 508.46187zM506.663671 879.521853c-277.79581 0-503.027421-225.231611-503.027421-503.027421s225.231611-503.02843 503.027421-503.02843c277.792783 0 503.02843 225.231611 503.02843 503.02843S784.457464 879.521853 506.663671 879.521853zM267.123153 601.848126c12.711742 13.999161 19.033814 24.072502 19.033814 30.457129 0 7.249295-6.138443 12.650196-18.360845 16.212794l0 10.191389 154.436721 31.806093c-4.545313-22.963668-12.038774-41.997482-22.474328-56.857275l20.387822 4.051937c30.395583 7.24425 57.594817 10.806847 81.667319 10.806847l193.793784 0c34.508057-3.563606 52.192906-16.951344 53.053539-39.915012 0-5.895286-18.111635-28.736871-54.403512-68.406709l4.052946 0c54.896888 0 82.344323-27.26078 82.344323-81.913502L780.654737 328.23138 326.317153 328.23138c-14.060706 0-34.509066-5.161781-61.219969-15.476261l-34.69673 39.17747L658.210764 351.93259l0 69.140214L352.844427 421.072804c-16.335885 0-39.421636-6.138443-69.389425-18.296272l-34.01569 41.997482L645.255865 444.774013c3.68468 0 7.980783 0.370284 12.954899 1.353l0 33.155057c0 24.810044-14.059697 37.212039-42.185146 37.212039L326.317153 516.494109c-13.632912 0-33.160102-3.558561-58.521031-10.806847l-34.691685 34.509066 325.13971 0 55.078499 65.703736c0 12.650196-7.921255 18.915767-23.822283 18.915767l-87.686706 0c-24.500297 0-51.271736-3.074266-80.317346-9.457883l-48.263052-9.458892c-1.843349-1.348964-3.625152-2.698937-5.405946-4.051937-33.155057-23.457044-80.56252-38.805168-142.215328-46.054464l-5.40191 13.50982C237.893915 576.548742 253.49125 587.355589 267.123153 601.848126zM645.255865 182.697621c-3.563606-32.9119-18.789648-50.473658-45.565123-52.804329-27.137688 0-42.125618 19.400062-44.823546 58.208257-5.033644 38.806177-18.422391 74.052785-40.159177 105.619756l10.867384 13.627867c37.150493-20.754071 68.467246-44.456289 93.89073-71.105646C636.656597 219.049027 645.255865 201.242094 645.255865 182.697621zM294.388977 157.646438c-16.828252-34.75424-47.896803-66.808534-93.212717-96.160864l-7.493461 7.493461c18.112644 50.106401 27.876238 98.613618 29.230247 145.528715 0 17.68384-8.842425 28.245513-26.527274 31.804075L196.385773 262.649727l135.337326 39.298544C326.748983 240.540639 314.283424 192.39967 294.388977 157.646438zM674.54564 83.22337c-17.684849-12.650196-45.992918-19.032805-85.046287-19.032805L453.485022 64.190565c-56.674655 0-85.04427 20.998236-85.04427 62.999754L368.440753 240.912941c0 11.790572-5.156736 20.631988-15.596326 26.404182l0 13.632912 129.93138 31.805084 0-198.460171c2.213633-17.560749 13.753986-26.404182 34.635184-26.404182l72.088362 0c35.36869 0 58.947816 5.034653 70.73738 14.982885 14.491527 9.946214 28.12444 25.914842 40.836182 48.017877l18.356809-7.492452C706.717981 116.383471 691.79866 96.238805 674.54564 83.22337zM777.890218 64.189556c-27.632073 0-42.617985 18.544474-44.828591 55.507302-6.383617 62.756597-21.552149 119.862074-45.560079 171.322483l10.807856 13.631903c38.133209-32.055303 69.877756-68.406709 95.300231-109.054217 18.052107-26.653393 27.137688-53.670007 27.137688-81.30208C817.127216 82.239645 802.819317 65.537511 777.890218 64.189556z"  horiz-adv-x="1025" />

    
    <glyph glyph-name="caozuo" unicode="&#59166;" d="M65.086 72.984c0.031 36.915 14.449 71.617 40.59 97.718l205.677 205.35-1.404 3.937c-12.75 35.741-19.198 73.189-19.163 111.309 0.159 182.735 148.953 331.269 331.689 331.113 45.492-0.039 89.727-9.244 131.475-27.359l12.927-5.605c0.571-0.467 1.221-0.852 1.946-1.124 1.909-0.7 3.571-1.765 5.019-3.205 2.53-2.537 3.935-5.934 3.931-9.542-0.002-3.607-1.413-7.002-3.969-9.556-0.637-0.639-1.15-1.355-1.53-2.138l-189.092-188.747 123.045-123.275 193.077 192.735c0.441 0.272 0.854 0.597 1.238 0.979 4.117 4.102 10.807 4.114 14.912 0.014 0.954-0.962 1.705-2.053 2.221-3.244l1.267-2.698 7.507-17.387c18.047-41.782 27.174-86.038 27.136-131.538-0.159-182.736-148.953-331.269-331.689-331.113-38.157 0.035-75.589 6.543-111.254 19.355l-3.933 1.41-205.702-205.35c-53.955-53.828-141.659-53.77-195.504 0.14-26.094 26.143-40.45 60.873-40.417 97.788l0.001 0.029zM141.827 134.487c-16.463-16.402-25.547-38.261-25.566-61.547-0.019-23.28 9.018-45.153 25.46-61.621 33.927-33.953 89.167-33.985 123.135-0.076l230.001 229.6 15.97-6.914c35.238-15.318 72.622-23.106 111.116-23.139 154.515-0.133 280.331 125.462 280.463 279.977 0.018 21.338-2.387 42.609-7.143 63.231l-2.676 11.596-178.007-177.715c-5.42-4.065-12.9-3.671-17.534 0.975l-3.317 3.113-175.303 175.604c-1.581 2.274-2.411 4.886-2.41 7.599 0.002 2.868 0.935 5.601 2.701 7.931l178.499 178.154-11.573 2.706c-20.546 4.802-41.813 7.25-63.212 7.269-154.518 0.133-280.337-125.462-280.471-279.974-0.035-38.446 7.687-75.855 22.956-111.193l6.879-15.97-229.971-229.607zM141.827 134.487z"  horiz-adv-x="1024" />

    
    <glyph glyph-name="yunzhineng" unicode="&#59030;" d="M502.81984 383.25248C502.81984 383.25248 470.511616 489.35936 282.51136 537.341952 167.328768 522.748928 80.784384 425.346048 80.784384 309.707776 80.784384 196.534272 165.817344 98.891776 278.651904 82.535424L279.387136 82.470912 743.258112 83.397632 770.893824 83.560448C870.749184 101.735424 943.228928 188.076032 943.228928 288.86016 943.235072 376.4224 887.721984 455.000064 804.929536 484.968448 768.789504 605.016064 659.730432 685.5424 533.041152 685.5424 443.05408 685.5424 359.733248 643.521536 306.56512 573.524992 399.62624 560.608256 490.942464 513.90464 502.81984 383.25248 502.81984 383.25248 502.822912 383.220736 502.81984 383.25248Z"  horiz-adv-x="1024" />

    
    <glyph glyph-name="yanse" unicode="&#58985;" d="M168.910848 318.125056m-28.672 0a28 28 0 1 0 57.344 0 28 28 0 1 0-57.344 0ZM229.326848 462.94528m-44.964864 0a43.911 43.911 0 1 0 89.929728 0 43.911 43.911 0 1 0-89.929728 0ZM408.513536 580.779008m-58.020864 0a56.661 56.661 0 1 0 116.041728 0 56.661 56.661 0 1 0-116.041728 0ZM642.842624 580.779008m-72.868864 0a71.161 71.161 0 1 0 145.737728 0 71.161 71.161 0 1 0-145.737728 0ZM1012.110336 651.752448l-0.77312 0.671744c-10.673152 9.270272-26.843136 8.132608-36.113408-2.541568L589.09696 205.283328l-48.813056-95.97952 87.571456 60.961792 386.797568 445.37344C1023.9232 626.313216 1022.784512 642.4832 1012.110336 651.752448zM945.957888 404.48c-13.732864 0-24.981504-10.60352-26.02496-24.06912l-0.086016 0.006144c0 0-36.182016-191.830016-193.878016-294.228992-170.133504-110.475264-364.883968-60.75904-401.06496 3.069952-19.881984 35.075072-50.176 94.208-67.412992 108.545024-46.288896 38.500352-163.328-14.848-187.904 43.52-45.676544 108.48256 62.123008 389.632 329.387008 459.264 186.98752 49.563648 346.205184-10.143744 426.067968-76.672l0 0.01024c4.4288-3.77856 10.171392-6.065152 16.449536-6.065152 14.00832 0 25.363456 11.355136 25.363456 25.363456 0 8.409088-4.094976 15.858688-10.397696 20.473856C822.82496 691.969024 610.65728 854.230016 314.32192 721.067008c-323.584-145.408-344.064-448.512-276.48-524.288s166.500352-15.837184 188.416-40.96c13.995008-16.043008 32.228352-58.630144 56.148992-97.281024 34.644992-55.977984 207.919104-173.529088 472.23296-16.723968 158.611456 94.096384 215.380992 310.782976 217.428992 334.505984l-0.08704 0.007168c0.052224 0.673792 0.08704 1.353728 0.08704 2.040832C972.069888 392.788992 960.37888 404.48 945.957888 404.48z"  horiz-adv-x="1037" />

    
    <glyph glyph-name="tixing" unicode="&#58977;" d="M510.567403 248.05676c-37.963825 0-68.764665-30.800839-68.764665-68.764665 0-37.963825 30.800839-68.764665 68.764665-68.764665s68.764665 30.800839 68.764665 68.764665C579.332068 217.255921 548.531228 248.05676 510.567403 248.05676L510.567403 248.05676zM510.567403 832.147097c-246.7137 0-446.663336-199.949635-446.663336-446.663336s199.949635-446.663336 446.663336-446.663336S957.230738 138.770061 957.230738 385.483761 757.281103 832.147097 510.567403 832.147097L510.567403 832.147097zM510.567403 7.482762c-208.749875 0-378.000999 169.251124-378.000999 378.000999s169.251124 378.000999 378.000999 378.000999 378.000999-169.251124 378.000999-378.000999S719.317278 7.482762 510.567403 7.482762L510.567403 7.482762zM510.567403 660.337764c-37.963825 0-68.764665-30.800839-68.764665-68.764665l0-206.191666c0-37.963825 30.800839-68.764665 68.764665-68.764665s68.764665 30.800839 68.764665 68.764665L579.332068 591.675427C579.332068 629.639253 548.531228 660.337764 510.567403 660.337764L510.567403 660.337764z"  horiz-adv-x="1024" />

    
    <glyph glyph-name="richeng" unicode="&#58922;" d="M353.574293 711.395562c13.731746 0 24.904203 11.172457 24.904203 24.90625L378.478496 825.689654c0 13.731746-11.171434 24.90318-24.904203 24.90318s-24.904203-11.171434-24.904203-24.90318l0-89.387843C328.67009 722.569042 339.842547 711.395562 353.574293 711.395562zM695.859983 711.395562c13.734816 0 24.908296 11.172457 24.908296 24.90625L720.768279 825.689654c0 13.731746-11.17348 24.90318-24.908296 24.90318-13.730723 0-24.902156-11.171434-24.902156-24.90318l0-89.387843C670.957827 722.569042 682.12926 711.395562 695.859983 711.395562zM432.061878 756.08846l188.583053 0c13.734816 0 24.908296 11.172457 24.908296 24.90625 0 13.732769-11.17348 24.905226-24.908296 24.905226L432.061878 805.899936c-13.733792 0-24.908296-11.172457-24.908296-24.905226C407.153582 767.26194 418.328086 756.08846 432.061878 756.08846zM251.104503 352.615199l547.225269 0c13.731746 0.001023 24.90318 12.534478 24.90318 27.939329 0 15.405875-11.171434 27.940352-24.90318 27.940352L251.104503 408.49488c-13.731746 0-24.90318-12.534478-24.90318-27.940352C226.201324 365.148653 237.372757 352.615199 251.104503 352.615199zM842.801636 808.080601l-66.820871 0c-0.390903 0-0.785899-0.027629-1.181919-0.057305-0.274246-0.020466-0.548492-0.042979-0.825808-0.042979-14.709003 0-26.675546-12.009522-26.675546-26.770713 0-14.141068 11.07729-25.752524 25.036209-26.668383l0-0.630357 71.720462 0c31.384801 0 56.917314-25.53149 56.917314-56.913221l0-105.402585c0-1.446955-1.177825-2.623757-2.625804-2.623757L155.450956 588.971301c-1.445932 0-2.62171 1.176802-2.62171 2.623757L152.829246 696.99355c0 31.382754 25.529443 56.914244 56.909128 56.914244l63.565734 0 0.149403-0.004093 0.2415 0.005117 0 0.270153c14.546298 0.255827 26.342971 12.232602 26.342971 26.801413 0 14.851243-11.93482 26.932396-26.605961 26.932396-0.224104 0-0.435928 0.034792-0.647753 0.062422-0.354064 0.046049-0.795109 0.104377-1.290389 0.104377l-60.505026 0c-61.340043 0-111.243617-49.903573-111.243617-111.243617l0-635.918287c0-60.879556 49.526997-110.408599 110.403482-110.408599l632.657011 0c61.340043 0 111.243617 49.901527 111.243617 111.2385L954.049347 696.834938C954.05037 758.176005 904.143727 808.080601 842.801636 808.080601zM152.829246 536.537092c0 1.445932 1.175779 2.62171 2.62171 2.62171l742.894717 0c1.447978 0 2.625804-1.175779 2.625804-2.62171l0-475.786217c0-31.519878-25.647123-57.161884-57.172117-57.161884L210.237747 3.588991c-31.654954 0-57.408501 25.756617-57.408501 57.414641L152.829246 536.537092zM251.104503 155.684014l547.239596 0c0 0 0 0 0.001023 0 6.711865 0 13.002129 2.949168 17.712407 8.303106 4.626367 5.260817 7.175423 12.234649 7.175423 19.636223 0 15.405875-11.171434 27.939329-24.90318 27.939329L251.104503 211.562673c-13.731746 0-24.90318-12.533454-24.90318-27.939329C226.201324 168.217469 237.372757 155.684014 251.104503 155.684014z"  horiz-adv-x="1024" />

    
    <glyph glyph-name="buoumaotubiao20" unicode="&#58898;" d="M512.023273 849.454545c256.651636 0 465.454545-208.802909 465.454545-465.454545s-208.802909-465.454545-465.454545-465.454545-465.454545 208.802909-465.454545 465.454545S255.371636 849.454545 512.023273 849.454545M512.023273 896c-282.763636 0-512-229.236364-512-512s229.236364-512 512-512 512 229.236364 512 512S794.810182 896 512.023273 896L512.023273 896zM725.76 146.967273c-5.957818 0-11.915636 2.280727-16.453818 6.818909l-427.450182 427.52c-9.099636 9.099636-9.099636 23.831273 0 32.907636 9.099636 9.099636 23.808 9.099636 32.907636 0l427.450182-427.52c9.099636-9.099636 9.099636-23.831273 0-32.907636C737.675636 149.248 731.717818 146.967273 725.76 146.967273zM298.263273 146.990545c-5.957818 0-11.915636 2.280727-16.453818 6.818909-9.099636 9.099636-9.099636 23.831273 0 32.907636L709.352727 614.190545c9.099636 9.099636 23.808 9.099636 32.907636 0s9.099636-23.831273 0-32.907636L314.717091 153.809455C310.178909 149.271273 304.221091 146.990545 298.263273 146.990545z"  horiz-adv-x="1026" />

    
    <glyph glyph-name="yintian" unicode="&#58936;" d="M910.216 284.523c-23.561 24.789-53.328 41.343-85.799 48.095-5.070 59.861-30.182 115.486-71.987 158.546-35.356 36.417-79.465 60.593-127.473 70.468l-12.816 49.389c-0.082 0.316-0.169 0.631-0.261 0.945-25.935 88.247-105.124 150.304-197.054 154.421-110.814 4.963-206.087-75.080-222.546-182.279-27.064-4.919-52.219-17.477-72.742-36.631-27.754-25.903-43.972-61.034-45.669-98.92-1.722-38.452 11.39-75.127 36.924-103.269 11.586-12.77 25.129-23.12 40.016-30.785-16.067-9.362-30.64-21.494-43.023-36.013-26.419-30.977-40.968-70.718-40.968-111.903 0-93.791 74.505-170.097 166.084-170.097h558.851c43.849 0 85.304 17.721 116.729 49.899 31.402 32.153 48.695 74.704 48.695 119.814 0.002 44.438-16.677 86.458-46.962 118.321zM135.206 445.809c0.974 21.74 10.287 41.905 26.225 56.781 15.925 14.864 36.699 22.842 58.458 22.447 16.881-0.306 30.83 13.011 31.235 29.888 0.012 0.27 0.035 0.536 0.053 0.803 0.057 0.802 0.111 1.609 0.148 2.433 3.797 84.794 75.904 150.708 160.752 146.888 65.577-2.937 122.085-47.1 140.761-109.947l7.499-28.9c-86.557-5.288-163.645-56.213-204.569-133.205-17.025 9.371-36.242 14.414-56.189 14.414-51.957 0-96.21-34.354-112.2-82.018-11.785 4.414-22.428 11.574-31.115 21.148-14.572 16.063-22.051 37.11-21.060 59.267zM864.559 89.287c-19.774-20.248-45.63-31.4-72.804-31.4l-558.85 0c-57.724 0-104.685 48.762-104.685 108.699 0 54.117 38.809 100.409 90.272 107.68 8.545 1.208 16.186 5.955 21.054 13.079 4.868 7.125 6.512 15.97 4.53 24.368-1.115 4.725-1.68 9.574-1.68 14.413 0 33.023 25.654 59.888 57.187 59.888 17.101 0 33.174-7.927 44.096-21.747 6.994-8.85 18.281-13.155 29.39-11.203 11.111 1.949 20.258 9.835 23.823 20.539 26.222 78.754 97.914 131.667 178.394 131.667 104.043 0 188.688-87.618 188.688-195.313 0-0.943 0.020-1.863 0.043-2.78 0.011-0.419 0.032-0.834 0.023-1.262-0.341-16.862 12.984-30.841 29.842-31.309 27.19-0.754 52.701-12.255 71.831-32.383 19.39-20.4 30.068-47.396 30.068-76.021 0.001-28.982-11.088-56.298-31.221-76.914z"  horiz-adv-x="1024" />

    
    <glyph glyph-name="xue" unicode="&#58940;" d="M905.308761 192.083016l-121.740692 70.287833 111.627357 34.878368c16.182564 5.056156 25.203008 22.275329 20.146852 38.457894-5.055133 16.182564-22.273283 25.204032-38.457894 20.146852l-165.606759-51.744501-137.878231 79.604012 135.133723 78.019934 168.351266-52.602032c3.048429-0.952698 6.131651-1.406023 9.16473-1.404999 13.07069 0 25.188682 8.416693 29.293163 21.551852 5.056156 16.183588-3.963265 33.401738-20.146852 38.457894l-114.370841 35.735899 123.4271 71.260997c14.683421 8.478092 19.713994 27.252691 11.235902 41.936111s-27.252691 19.713994-41.935088 11.236925l-121.739669-70.28681 25.607214 114.109897c3.713578 16.543791-6.688329 32.963763-23.231097 36.676317-16.551978 3.714602-32.964786-6.689353-36.676317-23.232121l-37.991266-169.291684-137.64594-79.469959L541.875424 591.823256l129.499399 119.281687c12.471033 11.486612 13.268188 30.90794 1.780553 43.378973-11.485589 12.471033-30.905894 13.267165-43.378973 1.781576l-87.900979-80.966033L541.875424 803.271062c0 16.954137-13.745049 30.699186-30.699186 30.699186s-30.699186-13.745049-30.699186-30.699186l0-126.45097-86.250386 79.4454c-12.470009 11.486612-31.893384 10.689457-43.378973-1.781576-11.486612-12.471033-10.689457-31.892361 1.781576-43.378973L480.475006 593.343889l0-155.982564-135.38648 78.165244-37.991266 169.290661c-3.712555 16.543791-20.135596 26.944676-36.676317 23.232121-16.543791-3.712555-26.944676-20.132526-23.232121-36.676317l25.607214-114.108874-122.348536 70.638827c-14.685467 8.477069-33.459043 3.446495-41.935088-11.236925-8.478092-14.683421-3.446495-33.458019 11.235902-41.936111l124.035968-71.611991-114.370841-35.735899c-16.182564-5.056156-25.203008-22.274306-20.146852-38.457894 4.104481-13.135158 16.220427-21.551852 29.293163-21.551852 3.032056 0 6.117324 0.453325 9.16473 1.404999l168.351266 52.602032 134.524856-77.667917-137.26834-79.251995-165.606759 51.744501c-16.185634 5.057179-33.401738-3.963265-38.457894-20.146852s3.963265-33.401738 20.146852-38.457894l111.627357-34.878368-122.350582-70.638827c-14.683421-8.477069-19.713994-27.252691-11.235902-41.935088 5.686513-9.849322 16.004509-15.35471 26.614148-15.35471 5.207605 0 10.486842 1.327228 15.32094 4.117784l124.036991 71.613014-26.237571-116.915803c-3.712555-16.543791 6.689353-32.964786 23.232121-36.676317 2.263553-0.508583 4.523013-0.75213 6.750751-0.75213 14.046924 0 26.721595 9.704013 29.925566 23.984251l38.620599 172.098613 134.756123 77.80197L480.475006 170.933323 352.628246 53.173293c-12.471033-11.486612-13.268188-30.90794-1.781576-43.378973 6.052856-6.570649 14.306844-9.900487 22.588461-9.900487 7.43432 0 14.891152 2.685155 20.790512 8.119935l86.250386 79.4454 0-122.275881c0-16.954137 13.745049-30.699186 30.699186-30.699186s30.699186 13.745049 30.699186 30.699186L541.874401 88.9798l87.900979-80.966033c12.472056-11.488659 31.892361-10.688433 43.378973 1.780553 11.487635 12.471033 10.689457 31.892361-1.780553 43.378973l-129.499399 119.281687 0 158.561295 137.016607-79.106686 38.620599-172.098613c3.204995-14.280238 15.878642-23.984251 29.925566-23.984251 2.226714 0 4.488221 0.243547 6.751774 0.75213 16.542768 3.711532 26.943652 20.132526 23.231097 36.676317l-26.237571 116.915803 123.428124-71.260997c4.835122-2.792603 10.112312-4.117784 15.32094-4.117784 10.609639 0 20.929682 5.506411 26.615171 15.35471C925.022755 164.830325 919.992181 183.605947 905.308761 192.083016z"  horiz-adv-x="1024" />

    
    <glyph glyph-name="xiayu" unicode="&#58924;" d="M339.528869 113.778097l-0.019176-0.038352c0 0-58.043925-61.043056-63.23967-110.276554-0.03164-0.29627-0.053693-0.595416-0.081498-0.893603-0.066157-0.71239-0.121768-1.422861-0.164914-2.129498-0.018217-0.309693-0.037393-0.619386-0.051775-0.930037-0.046022-0.996195-0.077663-1.989513-0.076704-2.973243 0-36.080659 29.710382-65.329858 66.35961-65.329858 36.649228 0 66.35961 29.249199 66.35961 65.329858 0 2.560959-0.165873 5.082607-0.457348 7.565903C407.151221 20.730247 398.266007 63.061333 339.528869 113.778097zM613.052884 115.6957l-0.019176-0.036434c0 0-58.286502-57.556854-63.503341-103.978187-0.03164-0.27997-0.054652-0.561858-0.082457-0.842787-0.066157-0.67212-0.121768-1.341363-0.164914-2.00773-0.018217-0.292434-0.037393-0.58391-0.051775-0.877303-0.046981-0.939625-0.078622-1.875416-0.076704-2.803536 0-34.020195 29.834067-61.599161 66.636704-61.599161s66.636704 27.578966 66.636704 61.599161c0 2.414262-0.166831 4.79209-0.459266 7.134442C680.958082 27.962487 672.035476 67.875476 613.052884 115.6957zM758.751401 688.901753c-49.386906 92.019056-146.504869 154.60003-258.250307 154.60003-120.532854 0-224.045064-72.811386-268.995596-176.842307C131.309783 645.44791 56.116734 556.507566 56.116734 449.993348c0-122.321978 99.161169-221.483146 221.483146-221.483146 2.815041 0 5.616659 0.059446 8.406772 0.163955l58.042966 0 0-22.691955 0.012464 0c-0.000959-0.16012-0.012464-0.318322-0.012464-0.479401 0-33.0077 26.758232-59.764974 59.764974-59.764974 33.0077 0 59.764974 26.758232 59.764974 59.764974 0 0.161079-0.010547 0.319281-0.012464 0.479401l0.012464 0L463.579566 228.674157l136.395266 0c-0.258876-2.25606-0.405573-4.545678-0.405573-6.87173 0-33.0077 26.758232-59.764974 59.764974-59.764974 33.0077 0 59.764974 26.758232 59.764974 59.764974 0 2.325094-0.146697 4.61567-0.405573 6.87173l35.886981 0 0 0.301064c124.641318 2.807371 224.819775 104.718382 224.819775 230.033738C979.403266 582.924464 881.449228 683.94379 758.751401 688.901753zM754.583491 296.174742c0 0-16.810667-0.390232-21.037064 0.094921L277.206772 296.269663c-0.089169 0-0.177378-0.003835-0.266547-0.003835-0.098757 0-0.196554 0.003835-0.29627 0.003835l-1.308764 0 0 0.0163c-83.631461 0.861963-151.163685 68.912899-151.163685 152.748584 0 84.371655 68.397064 152.768719 152.768719 152.768719 0.931955 0 1.859116-0.018217 2.786277-0.035476 5.589813 24.286442 15.081948 47.078112 27.772644 67.691386-0.038352 0.004794-0.076704 0.011506-0.115056 0.017258 13.172015 21.349633 29.785169 40.350202 49.064749 56.229873 0.116015 0.09588 0.233948 0.188884 0.349963 0.284764 1.022082 0.838951 2.052794 1.667356 3.089258 2.48809 0.529258 0.419955 1.058517 0.838951 1.590652 1.254112 0.465978 0.362427 0.936749 0.719101 1.404644 1.077693 38.234127 29.328779 86.06394 46.773213 137.975371 46.773213 101.522697 0 187.464869-66.674097 216.449438-158.620285 11.29564 2.46412 23.022742 3.773843 35.056659 3.773843 11.265918 0 22.265288-1.139056 32.890727-3.304989-0.001918 0.00767-0.003835 0.015341-0.004794 0.022052 3.933963-0.806352 7.813273-1.763236 11.638891-2.845723 0.245453-0.069034 0.489948-0.139985 0.734442-0.209978 0.895521-0.257918 1.787206-0.523506 2.676974-0.795805 0.465978-0.141903 0.930996-0.285723 1.395056-0.432419 0.609798-0.192719 1.21576-0.39215 1.822682-0.591581 0.680749-0.223401 1.360539-0.44776 2.037453-0.67979 0.228195-0.078622 0.454472-0.161079 0.681708-0.2397 63.982742-22.27967 109.902622-83.121378 109.902622-154.696869C916.141543 369.253633 844.010906 297.362697 754.583491 296.174742z"  horiz-adv-x="1024" />

    
    <glyph glyph-name="yiwen" unicode="&#58886;" d="M512-128C229.218462-128 0 101.257846 0 384 0 666.781538 229.218462 896 512 896 794.781538 896 1024 666.781538 1024 384 1024 101.257846 794.781538-128 512-128ZM512 817.270154C272.738462 817.270154 78.769231 623.300923 78.769231 384 78.769231 144.738462 272.738462-49.230769 512-49.230769 751.261538-49.230769 945.230769 144.738462 945.230769 384 945.230769 623.300923 751.261538 817.270154 512 817.270154ZM649.885538 438.272C639.763692 425.314462 628.854154 413.853538 617.196308 403.849846 605.538462 393.846154 594.628923 383.842462 584.507077 373.838769 574.385231 363.835077 565.956923 353.476923 559.300923 342.685538 552.644923 331.933538 549.297231 320 549.297231 306.924308 549.297231 295.896615 550.715077 285.892923 553.550769 276.913231 556.347077 267.933538 559.182769 260.371692 562.018462 254.227692L480.846769 254.227692C478.523077 260.647385 476.475077 268.957538 474.702769 279.236923 472.891077 289.476923 471.985231 299.598769 471.985231 309.602462 471.985231 325.238154 475.136 339.416615 481.437538 352.098462 487.699692 364.819692 495.537231 376.674462 504.871385 387.702154 514.244923 398.729846 524.366769 409.363692 535.276308 419.603692 546.146462 429.883077 556.307692 439.886769 565.641846 449.614769 575.015385 459.342769 582.813538 469.622154 589.115077 480.374154 595.377231 491.165538 598.528 502.941538 598.528 515.780923 598.528 527.320615 596.243692 537.363692 591.596308 545.949538 586.988308 554.535385 580.647385 561.742769 572.573538 567.492923 564.499692 573.282462 555.283692 577.575385 544.886154 580.371692 534.488615 583.207385 523.421538 584.625231 511.606154 584.625231 473.403077 584.625231 437.011692 567.571692 402.392615 533.464615L402.392615 622.316308C444.416 646.931692 488.014769 659.219692 533.149538 659.219692 553.905231 659.219692 573.558154 656.541538 591.990154 651.145846 610.461538 645.750154 626.609231 637.833846 640.472615 627.318154 654.296615 616.802462 665.206154 603.726769 673.161846 588.091077 681.117538 572.416 685.095385 554.220308 685.095385 533.464615 685.095385 513.732923 681.747692 496.167385 675.091692 480.768 668.396308 465.368615 660.007385 451.229538 649.885538 438.272ZM524.681846 194.244923C539.293538 194.244923 552.132923 189.085538 563.160615 178.845538 573.912615 169.353846 579.308308 157.302154 579.308308 142.690462 579.308308 128.315077 573.912615 116.263385 563.160615 106.535385 551.857231 96.531692 539.057231 91.529846 524.681846 91.529846 510.070154 91.529846 497.112615 96.531692 485.848615 106.535385 475.057231 116.263385 469.700923 128.315077 469.700923 142.690462 469.700923 157.302154 475.057231 169.353846 485.848615 178.845538 496.876308 189.085538 509.833846 194.244923 524.681846 194.244923Z"  horiz-adv-x="1024" />

    
    <glyph glyph-name="lianjie" unicode="&#58887;" d="M729.421868 303.03806c-48.383964 0-90.440825-26.126031-113.861234-64.768119L394.33309 358.042815c17.308201 22.50762 28.02017 50.344618 28.02017 80.886215 0 25.245987-7.436366 48.599881-19.651572 68.744687l209.729675 123.097596c22.592554-41.771359 66.267263-70.521147 116.990504-70.521147 73.617671 0 133.512806 59.878762 133.512806 133.512806S803.039539 827.275779 729.421868 827.275779 595.910085 767.39804 595.910085 693.763996c0-10.903328 1.682315-21.366633 4.15974-31.519878L382.027833 534.272515c-24.084535 23.533996-56.92857 38.169321-93.187379 38.169321-73.617671 0-133.512806-59.878762-133.512806-133.512806s59.895135-133.512806 133.512806-133.512806c30.53034 0 58.359152 10.707876 80.878029 28.016077l232.395908-125.803217c-3.651157-12.157901-6.205329-24.77322-6.205329-38.104853 0-73.634044 59.895135-133.512806 133.512806-133.512806s133.512806 59.878762 133.512806 133.512806S803.039539 303.03806 729.421868 303.03806zM729.421868 760.520399c36.81651 0 66.756403-29.955242 66.756403-66.756403s-29.938869-66.756403-66.756403-66.756403c-36.81651 0-66.756403 29.955242-66.756403 66.756403S692.605358 760.520399 729.421868 760.520399zM288.840454 372.17365c-36.81651 0-66.756403 29.955242-66.756403 66.756403s29.938869 66.756403 66.756403 66.756403 66.756403-29.955242 66.756403-66.756403S325.657988 372.17365 288.840454 372.17365zM729.421868 102.768851c-36.81651 0-66.756403 29.955242-66.756403 66.756403 0 36.801161 29.938869 66.756403 66.756403 66.756403 36.81651 0 66.756403-29.955242 66.756403-66.756403C796.178271 132.725116 766.239402 102.768851 729.421868 102.768851z"  horiz-adv-x="1024" />

    
    <glyph glyph-name="icon2" unicode="&#58881;" d="M761.946 632.717l-205.124 31.21-323.518-323.519 236.334-236.334 323.428 323.428-31.12 205.215zM283.142 340.498l74.635 74.635 186.557-186.588-74.604-74.635-186.588 186.588zM569.251 253.435l-186.587 186.587 186.557 186.557 155.316-31.148 31.271-155.439-186.558-186.556zM638.359 508.305v0zM603.18 508.305v0zM617.607 534.179c0-16.349 13.253-29.602 29.602-29.602s29.602 13.253 29.602 29.602c0 16.349-13.253 29.602-29.602 29.602-16.349 0-29.602-13.253-29.602-29.602z"  horiz-adv-x="1024" />

    
    <glyph glyph-name="bhjpaidui" unicode="&#58931;" d="M644.832819 240.576473c-4.818749 0-9.549493 0.633427-14.104229 1.828648l0-182.630481c3.206018-1.121544 6.421246-2.286066 9.953699-2.286066 19.092847 0 34.5724 17.683754 34.5724 39.517015L675.254689 250.425795c-3.583618-2.316765-7.064906-4.804423-11.076266-6.299473C657.918859 241.771695 651.404492 240.576473 644.832819 240.576473L644.832819 240.576473zM831.971987 592.088292c-8.549723 26.440186-32.853245 44.215014-60.505026 44.215014l-98.881055 0c-18.021445 0-34.108842-8.083096-45.856397-20.666692-2.200108-2.986007-4.575202-5.830799-7.05365-8.592702-1.497097-2.317789-2.576685-4.928243-3.789303-7.459902 27.411303-9.597589 49.554626-31.474852 58.926064-60.473303l64.030315-198.101847c2.90005-8.951883 3.944845-18.209734 3.139503-27.341718-0.601704-7.097652-2.310625-13.878079-4.881171-20.24816l0-182.678576c0-21.215184 17.080004-38.411845 38.170345-38.411845 21.069875 0 38.160111 17.196661 38.160111 38.411845L813.431725 404.051685l10.851139-33.5757c5.184069-16.035208 19.968797-26.238594 35.855626-26.238594 3.855818 0 7.792477 0.61603 11.675924 1.886977 14.858406 4.866844 24.665773 18.127869 25.914206 32.853245 0.440022 4.926196-0.102331 10.006911-1.723248 14.973016L831.971987 592.088292 831.971987 592.088292zM686.085362 670.690488c8.293897-2.832512 17.022699-4.705162 26.266224-4.705162 9.245572 0 17.98563 1.87265 26.276457 4.705162 32.112372 10.973936 55.356772 41.075511 55.356772 76.917834 0 45.082778-36.547381 81.634252-81.632205 81.634252-45.075615 0-81.622996-36.552497-81.622996-81.634252C630.72859 711.764975 653.97913 681.6634 686.085362 670.690488L686.085362 670.690488zM624.198873 532.709927c-8.55791 26.454512-32.865525 44.227294-60.509119 44.227294L464.809723 576.937221c-18.023492 0-34.112935-8.082072-45.859467-20.666692-2.207271-2.984984-4.574179-5.830799-7.05058-8.594749-1.508353-2.314719-2.589988-4.920056-3.791349-7.457856 27.41335-9.590426 49.548486-31.474852 58.930157-60.47535l64.019059-198.09366c2.902096-8.964162 3.957125-18.219967 3.151783-27.341718-0.601704-7.099698-2.308579-13.890358-4.888334-20.24816l0-182.691879c0-21.215184 17.086144-38.403658 38.172391-38.403658 21.080108 0 38.166251 17.188474 38.166251 38.403658L605.659635 344.683553l10.851139-33.57877c5.176906-16.033162 19.974937-26.228361 35.851533-26.228361 3.862981 0 7.80271 0.605797 11.67183 1.87879 14.869662 4.864798 24.668843 18.129916 25.914206 32.852222 0.444115 4.930289-0.102331 10.006911-1.717108 14.97404L624.198873 532.709927 624.198873 532.709927zM466.745818 181.22062c-4.831029 0-9.549493 0.633427-14.112416 1.830695l0-182.63969c3.214205-1.121544 6.4192-2.288113 9.953699-2.288113 19.092847 0 34.56933 17.685801 34.56933 39.519062L497.156432 191.061756c-3.572362-2.306532-7.05672-4.806469-11.06501-6.28924C479.821625 182.417889 473.318514 181.22062 466.745818 181.22062L466.745818 181.22062zM478.308155 611.327472c8.28264-2.835581 17.018605-4.707209 26.266224-4.707209 9.245572 0 17.981537 1.871627 26.266224 4.707209 32.114418 10.973936 55.365982 41.075511 55.365982 76.917834 0 45.081755-36.549427 81.631182-81.632205 81.631182-45.077661 0-81.625042-36.550451-81.625042-81.631182C422.949336 652.401959 446.19169 622.300384 478.308155 611.327472L478.308155 611.327472zM415.580508 458.505901c-8.668427 26.441209-33.287127 44.225247-61.281715 44.225247l-100.155071 0c-27.997658 0-52.614311-17.784038-61.280692-44.225247l-64.849984-198.12743c-1.639337-4.967128-2.189875-10.044774-1.741667-14.97404 1.264806-14.735609 11.18576-27.987425 26.248827-32.852222 3.919263-1.272993 7.907087-1.889023 11.82021-1.889023 16.081257 0 31.058366 10.203386 36.309974 26.238594l10.989285 33.576723 0-293.311279c0-21.217231 17.306154-38.411845 38.656415-38.411845s38.649252 17.194614 38.649252 38.411845L288.945343 206.675362l30.54262 0 0-229.516324c0-21.215184 17.308201-38.401612 38.658462-38.401612 21.351284 0 38.649252 17.186428 38.649252 38.401612L396.795677 270.479527l10.990309-33.576723c5.250584-16.035208 20.22667-26.238594 36.316114-26.238594 3.914146 0 7.891737 0.61603 11.82328 1.889023 15.051811 4.864798 24.984021 18.11559 26.245757 32.852222 0.442068 4.928243-0.11154 10.006911-1.740644 14.97404L415.580508 458.505901 415.580508 458.505901zM270.525831 537.117306c8.284687-2.833535 17.021675-4.705162 26.2652-4.705162 9.247618 0 17.984606 1.871627 26.267247 4.705162 32.115442 10.973936 55.367005 41.075511 55.367005 76.908624 0 45.089941-36.557614 81.642438-81.634252 81.642438-45.072545 0-81.621972-36.552497-81.621972-81.642438C215.170083 578.192817 238.41039 548.091242 270.525831 537.117306L270.525831 537.117306z"  horiz-adv-x="1024" />

    
    <glyph glyph-name="jiaoya" unicode="&#58933;" d="M810.520419 654.814915c-24.064069 0-43.566238 19.485797-43.566238 43.534516 0 24.035416 19.503193 43.521213 43.566238 43.521213 24.048719 0 43.552935-19.485797 43.552935-43.521213C854.072331 674.299689 834.569138 654.814915 810.520419 654.814915zM698.789709 717.897649c-23.011086 0-41.674145 18.646686-41.674145 41.643446 0 22.99676 18.662035 41.644469 41.674145 41.644469 23.00904 0 41.658795-18.647709 41.658795-41.644469C740.448504 736.545358 721.798748 717.897649 698.789709 717.897649zM579.474252 736.834954c-25.453718 0-46.086641 20.615527-46.086641 46.052872 0 25.424042 20.632923 46.053895 46.086641 46.053895 25.452695 0 46.082548-20.629853 46.082548-46.053895C625.557824 757.450481 604.926948 736.834954 579.474252 736.834954zM456.997803 724.215542c-28.931936 0-52.386114 23.437805-52.386114 52.356438 0 28.916587 23.454178 52.370765 52.386114 52.370765 28.949332 0 52.402487-23.453155 52.402487-52.370765C509.400291 747.653347 485.947136 724.215542 456.997803 724.215542zM275.865443 624.538355c-51.608402 0-93.435019 41.796942-93.435019 93.359294 0 51.577702 41.826618 93.374644 93.435019 93.374644 51.593052 0 93.421716-41.795918 93.421716-93.374644C369.286136 666.335297 327.457472 624.538355 275.865443 624.538355zM580.720639-60.464861c-22.737864 0-45.080731 5.838985-64.6136 16.887622-37.217646 21.050432-62.065568 49.204655-73.855078 83.677794-11.05887 32.340569-10.585079 70.582545 1.409093 113.660666 1.851161 6.632047 2.90312 12.431124 3.220345 17.742083 0.925069 15.286148 1.387603 28.011984 1.413186 38.924521 0.071631 22.487154-8.019651 44.923142-22.785959 63.190181-29.067013 35.9467-53.163827 72.055083-71.618131 107.319238-21.608134 41.273009-24.898063 89.918939-9.022491 133.459594 19.665899 53.949726 45.930075 93.759407 80.292698 121.702829 39.489386 32.112372 90.702792 48.494481 152.216797 48.690956l0.358157 0c6.589069 0 13.192464-0.523933 19.623943-1.556449 53.472865-8.469905 96.235808-26.741038 130.695644-55.850006 30.061666-25.394367 53.045123-58.56893 70.26225-101.419877 12.730952-31.692816 19.639293-66.288752 20.535709-102.8259 3.465938-141.277654-11.511171-248.637824-45.785789-328.21523-16.166191-37.535895-37.008892-69.052702-61.948911-93.678566-23.708981-23.410176-51.852972-41.324174-83.648119-53.244668C612.49532-57.615976 596.765057-60.464861 580.720639-60.464861zM577.735655 648.97593l-0.248663 0c-100.700493-0.320295-162.066119-45.609781-198.968587-146.845463-12.431124-34.095539-9.842159-72.213695 7.104815-104.582917 17.362436-33.177634 40.151465-67.296709 67.737754-101.410668 19.928888-24.653493 30.848589-55.126528 30.750351-85.808318-0.027629-11.598152-0.511653-25.00551-1.478677-40.974203-0.468674-7.861038-1.932002-16.111956-4.470825-25.209148-20.530592-73.741491-2.871397-123.489522 55.57883-156.547429 14.164604-8.012488 30.410614-12.246929 46.979988-12.246929 11.733229 0 23.230074 2.081405 34.17331 6.185886 56.447617 21.162995 97.425913 62.885236 125.280308 127.556141 31.739888 73.691349 46.164413 179.057095 42.87346 313.168536-0.789992 32.246425-6.834662 62.644759-17.965164 90.352821-31.555693 78.538751-86.643336 121.516588-173.364443 135.252427C587.185888 648.594237 582.364069 648.97593 577.735655 648.97593z"  horiz-adv-x="1024" />

    
    <glyph glyph-name="nanguo" unicode="&#58953;" d="M512 896C229.75 896 0 666.25 0 384s229.75-512 512-512S1024 101.75 1024 384 794.25 896 512 896zM929.375 365.25c-9.375-212.375-176.375-383.5-388.25-398.125l-4.875-0.375c-21.75-1.625-44-1.25-66.25 1-7.5 0.75-15 2-22.625 3.375l-10.875 1.625c-2.375 0.375-4.75 0.625-7 1.125-165.875 33.125-294.375 161.75-327.5 327.75-0.375 1.5-0.625 3.125-0.875 5.5-0.25 1.875-0.5 3.75-1.375 8.25-1.5 8.875-3 17.625-3.875 26.625-1.375 13.75-2.125 27.75-2.125 42 0 109.125 42.375 208.375 111.125 283l0 24.25 24.25 0c74.5 68.75 173.875 111.125 283 111.125 14 0 28.125-0.75 42-2.125 8.5-0.875 16.875-2.25 25.375-3.75l9.375-1.375c1.875-0.25 3.875-0.5 5.875-0.875 77-15.375 145.375-52.125 200.625-102.875l24.125 0 0-24.125C870 612 906.625 543.5 922 466.5c0.5-1.875 0.75-4 1.125-7.125l1.75-11c1.25-7.375 2.5-14.75 3.375-22.375 1.375-13.75 2.125-27.875 2.125-42 0-3.75-0.25-7.5-0.5-11.375L929.375 365.25zM512 313.5c133.25 0 246-85.875 288.375-204.875l-59.625 0C703.875 191 624.25 249.875 529.375 256.375l-3 0.25c-13 1-26.375 0.75-39.75-0.625-4.5-0.5-9-1.25-13.625-2l-6.5-1c-1.375-0.25-2.875-0.375-4.25-0.625-80.875-16.125-146.25-70.5-179-143.625l-59.875 0C266.125 227.625 378.75 313.5 512 313.5L512 313.5zM691.25 409c-42.375 0-76.75 34.375-76.75 76.75 0 42.375 34.375 76.75 76.75 76.75 42.375 0 76.75-34.375 76.75-76.75C768 443.375 733.625 409 691.25 409L691.25 409zM332.75 409c-42.375 0-76.75 34.375-76.75 76.75 0 42.375 34.375 76.75 76.75 76.75 42.375 0 76.75-34.375 76.75-76.75C409.625 443.375 375.25 409 332.75 409L332.75 409z"  horiz-adv-x="1024" />

    
    <glyph glyph-name="kaixin" unicode="&#58956;" d="M879.75 746.125C782.375 842.75 653 896 515.25 896s-267.125-53.25-364.375-149.875S0 520.75 0 384s53.625-265.375 150.875-362.125S377.625-128 515.25-128c137.75 0 267.25 53.25 364.5 150C1080.625 221.625 1080.625 546.375 879.75 746.125zM832.25 69.25C747.625-14.875 635-61.25 515.25-61.25c-119.75 0-232.25 46.375-316.875 130.375-84.625 84.125-131.25 195.875-131.25 314.875s46.75 230.75 131.25 314.875c84.75 84.125 197.25 130.375 316.875 130.375s232.25-46.25 316.875-130.375C1006.875 525.25 1006.875 242.75 832.25 69.25zM331.625 574.875c-34.75 0-63.125-28.125-63.125-62.75s28.25-62.75 63.125-62.75c34.875 0 63.125 28.125 63.125 62.75C394.75 546.875 366.5 574.875 331.625 574.875L331.625 574.875 331.625 574.875 331.625 574.875 331.625 574.875zM698.75 574.875c-34.75 0-63.125-28.125-63.125-62.75S663.875 449.5 698.75 449.5c34.875 0 63.125 28.125 63.125 62.75C761.875 546.875 733.625 574.875 698.75 574.875L698.75 574.875 698.75 574.875 698.75 574.875 698.75 574.875zM758.25 288.5c-11.625 0-22.625-7.125-27-18.75-33.5-89.75-120.375-150-216.125-150S332.5 180 299 269.75c-5.5 14.875-22.125 22.5-37 16.875-14.875-5.5-22.5-22.125-16.875-37 20.375-54.5 56.25-101.125 103.875-134.75 48.75-34.5 106.25-52.75 166.125-52.75S632.5 80.5 681.25 114.875c47.625 33.75 83.625 80.25 103.875 134.75 5.5 14.875-2 31.375-16.875 37C765 287.875 761.625 288.5 758.25 288.5z"  horiz-adv-x="1031" />

    
    <glyph glyph-name="tupian" unicode="&#59373;" d="M839.344396 825.430758 183.788863 825.430758c-16.449647 0-119.18345 0-119.18345-117.614721l0-646.880967c0-117.611651 119.18345-117.611651 119.18345-117.611651l655.555533 0c34.370809 0 58.582233 9.897418 75.994812 23.864524 1.11438 0.818645 2.234901 1.638313 3.288906 2.51938 3.992941 3.439332 7.632841 7.126304 10.857279 10.94119 0.929162 1.105171 1.697665 2.269693 2.556219 3.435239 26.288736 33.95023 26.485211 76.850295 26.485211 76.850295L958.526823 707.815013C958.527846 825.430758 855.827813 825.430758 839.344396 825.430758zM190.689017 10.090055c-64.590064-0.062422-62.609966 59.674101-62.609966 59.674101l0 28.086685c26.802436 23.862477 110.590747 98.66309 146.941654 134.569882 4.695952 4.600785 11.180644 10.81123 18.302855 10.085706 7.510044-0.030699 14.376429-6.492878 14.442944-6.492878l2.394537-2.303462c0.795109-0.691755 80.08292-70.324672 118.224612-107.996666 23.254633-22.977317 47.084365-26.383904 61.937654-27.362184 32.868595 0.413416 54.653761 22.099321 54.81442 22.476921l61.686944 52.993958c6.356778 5.92392 12.298094 4.723581 21.179368-4.00829 23.063275-22.791076 102.826923-105.063871 155.947771-159.975505C644.934638 9.90279 243.937778 10.090055 190.689017 10.090055zM890.038986 67.620329c0 0-0.159636-33.385365-26.000164-49.399083-43.001373 44.542472-161.063279 166.694533-190.901865 196.136076-22.200628 21.912056-45.13292 26.859741-59.062164 26.13217-30.029944-0.409322-49.449225-19.006889-50.825572-20.614503l-61.780065-53.118801c-12.521175-11.727089-22.935362-1.480724-27.950586 3.499707-37.755905 37.292348-110.939695 101.724823-120.107495 109.761869-6.070252 5.990434-27.472702 24.747637-58.360176 25.472138-16.165168 0.786922-40.632419-4.25593-65.230654-28.529777-22.903639-22.599717-66.827011-62.571081-101.772918-93.999884L128.047328 703.814909c0.030699 57.844429 42.423205 57.844429 58.616002 57.844429l644.760676 0c16.22759 0 58.616002 0 58.616002-57.844429L890.040009 67.620329zM660.519592 646.157745c-83.437317 0-151.318334-67.081815-151.318334-149.512199 0-82.433454 67.915809-149.515269 151.318334-149.515269 83.438341 0 151.320381 67.082838 151.320381 149.515269C811.839972 579.075931 743.958956 646.157745 660.519592 646.157745zM660.519592 410.177196c-48.200792 0-87.427188 38.775118-87.427188 86.469374 0 47.695279 39.22742 86.467327 87.427188 86.467327 48.205908 0 87.433328-38.771025 87.433328-86.467327C747.95292 448.952314 708.726523 410.177196 660.519592 410.177196z"  horiz-adv-x="1024" />

    
    <glyph glyph-name="zhongyaotishi" unicode="&#59175;" d="M506.580099 265.846154c13.730416 0 25.292872 11.562456 25.292872 25.292872V622.114326c0 13.730416-11.562456 25.292872-25.292872 25.292872s-25.292872-11.562456-25.292872-25.292872v-331.697953c0-13.730416 10.839802-24.570219 25.292872-24.570219zM916.324629 409.654199c-0.722653 13.730416-12.285109 24.570219-26.738179 23.847565-13.730416-0.722653-24.570219-12.285109-23.847565-26.738179 0-6.503881 0.722653-12.285109 0.722653-18.788991 0-198.729711-161.151729-359.88144-359.881439-359.881439S145.976006 189.244884 145.976006 387.974594c0 198.729711 161.151729 359.88144 359.881439 359.88144 52.753705 0 103.33945-10.839802 151.03458-33.242061 5.058574-2.16796 10.839802-5.058574 15.898377-7.949188 12.285109-6.503881 27.460833-1.445307 33.964714 10.839802 6.503881 12.285109 1.445307 27.460833-10.839802 33.964714-5.781228 2.890614-12.285109 6.503881-18.788991 9.394496-54.199012 25.292872-112.011291 37.577982-171.991531 37.577981-226.190543 0-410.467184-184.276641-410.467184-410.467184s184.276641-410.467184 410.467184-410.467184 410.467184 184.276641 410.467184 410.467184c1.445307 7.226535 1.445307 14.45307 0.722653 21.679605zM506.580099 189.244884m-28.183486 0a28.183486 28.183486 0 1 1 56.366972 0 28.183486 28.183486 0 1 1-56.366972 0ZM873.688073 506.489767m-27.460832 0a27.460833 27.460833 0 1 1 54.921665 0 27.460833 27.460833 0 1 1-54.921665 0ZM833.219478 595.376147m-27.460833 0a27.460833 27.460833 0 1 1 54.921666 0 27.460833 27.460833 0 1 1-54.921666 0ZM767.45801 671.254764m-27.460833 0a27.460833 27.460833 0 1 1 54.921666 0 27.460833 27.460833 0 1 1-54.921666 0Z"  horiz-adv-x="1024" />

    
    <glyph glyph-name="youjiantou" unicode="&#58897;" d="M223.361 239.226h278.040v288.745h-278.040v-288.745zM3.339 501.669v-231.082c0-37.876 25.531-31.361 25.531-31.361h122.984v288.745h-127.108s-21.407 0.679-21.407-26.303zM1010.849 411.593c-35.284 34.477-377.398 287.565-377.398 287.565s-39.407 38.982-39.407-19.456v-151.729h-0.414v-288.746h0.056v-161.675c0-47.911 38.006-6.251 38.006-6.251l376.25 291.311c-0.001-0.001 28.621 23.955 2.907 48.981zM1010.849 411.593z"  horiz-adv-x="1024" />

    
    <glyph glyph-name="zuojiantou" unicode="&#58900;" d="M801.547 527.173h-278.040v-288.746h278.039v288.746zM1021.569 264.731v231.082c0 37.876-25.531 31.361-25.531 31.361h-122.984v-288.746h127.107s21.407-0.679 21.407 26.303zM14.061 354.806c35.284-34.477 377.398-287.564 377.398-287.564s39.407-38.982 39.407 19.455v151.73h0.414v288.746h-0.056v161.675c0 47.911-38.007 6.251-38.007 6.251l-376.249-291.311s-28.622-23.956-2.907-48.982zM14.061 354.806z"  horiz-adv-x="1024" />

    
    <glyph glyph-name="xiayi" unicode="&#59009;" d="M533.884426-59.899996c0.25992 0.066515 0.520863 0.384763 0.780783 0.508583 7.196912 3.060709 14.090926 7.274684 20.034289 13.141298 0.055259 0.066515 0.055259 0.13303 0.124843 0.190335 0.055259 0.066515 0.12382 0.066515 0.190335 0.124843l317.67313 316.780807c24.870434 24.879644 25.073048 65.197908 0.1361 90.202395-24.880667 24.949228-65.264423 25.006534-90.202395 0.124843l-199.503776-191.83819 0 593.988316c0 35.218106-35.638685 63.794955-70.848605 63.794955S441.407222 798.542364 441.407222 763.323235l0-597.377506L239.241826 363.354797c-24.814152 25.074072-65.131393 25.25622-90.205465 0.508583-12.620435-12.440333-18.938328-28.892027-18.938328-45.356001 0-16.202007 6.181793-32.407084 18.431791-44.847417l315.954999-319.469032C483.185744-64.612321 510.7311-69.402417 533.884426-59.899996L533.884426-59.899996 533.884426-59.899996 533.884426-59.899996z"  horiz-adv-x="1024" />

    
    <glyph glyph-name="shangyi" unicode="&#59010;" d="M533.884426 822.370049 533.884426 822.370049 533.884426 822.370049c-23.153326 9.502421-50.698682 4.712325-69.399603-14.090926L148.529825 488.810091c-12.249999-12.440333-18.431791-28.64541-18.431791-44.847417 0-16.463973 6.317892-32.915667 18.938328-45.356001 25.074072-24.747637 65.391313-24.565489 90.205465 0.508583L441.407222 596.524325l0-597.377506c0-35.219129 35.651988-63.794955 70.861908-63.794955s70.848605 28.576849 70.848605 63.794955l0 593.988316 199.503776-191.83819c24.937972-24.88169 65.321728-24.824385 90.202395 0.124843 24.936949 25.004487 24.734334 65.322751-0.1361 90.202395L555.014676 808.404989c-0.066515 0.058328-0.135076 0.058328-0.190335 0.124843-0.069585 0.057305-0.069585 0.12382-0.124843 0.190335-5.943362 5.866614-12.837376 10.080589-20.034289 13.141298C534.405289 821.985286 534.144346 822.303534 533.884426 822.370049L533.884426 822.370049z"  horiz-adv-x="1024" />

    
    <glyph glyph-name="004caozuo_liebiao" unicode="&#58914;" d="M921.699 346.951H355.616c-20.749 0-37.54 16.79-37.54 37.54 0 20.733 16.791 37.542 37.54 37.542h566.083c20.756 0 37.546-16.808 37.546-37.542 0-20.75-16.79-37.54-37.546-37.54z m0 300.324H355.616c-20.749 0-37.54 16.809-37.54 37.541 0 20.731 16.791 37.54 37.54 37.54h566.083c20.756 0 37.546-16.809 37.546-37.54 0-20.732-16.79-37.54-37.546-37.54z m-785.19-638.183c-41.464 0-75.086 33.617-75.086 75.076 0 41.466 33.622 75.08 75.087 75.08 41.46 0 75.08-33.615 75.08-75.08 0-41.46-33.62-75.076-75.08-75.076z m0 300.32c-41.464 0-75.086 33.621-75.086 75.078 0 41.468 33.622 75.083 75.087 75.083 41.46 0 75.08-33.615 75.08-75.083 0-41.456-33.62-75.079-75.08-75.079z m0 300.324c-41.464 0-75.086 33.616-75.086 75.08 0 41.466 33.622 75.082 75.087 75.082 41.46 0 75.08-33.615 75.08-75.082 0-41.465-33.62-75.08-75.08-75.08z m219.107-488.023h566.083c20.756 0 37.546-16.791 37.546-37.54s-16.79-37.542-37.546-37.542H355.616c-20.749 0-37.54 16.792-37.54 37.541s16.79 37.541 37.54 37.541z m0 0"  horiz-adv-x="1024" />

    
    <glyph glyph-name="jihuadaichuli" unicode="&#58885;" d="M951.43 135.846c-0.072-107.783-87.492-195.179-195.203-195.145-107.687 0.01-195.231 87.481-195.159 195.184 0.102 107.89 87.086 195.261 195.294 195.184 108.082-0.117 195.145-87.565 195.068-195.223zM789.112 265.933h-65.868c3.116-61.479 6.275-122.774 9.392-184.138h47.076c3.135 61.397 6.251 122.687 9.4 184.138z m-34.038-271.866c19.554 0.038 32.996 13.288 33.107 32.62 0.111 19.501-13.424 33.224-32.731 33.186-19.24-0.029-33.142-13.988-33.089-33.238 0.035-19.188 13.535-32.621 32.713-32.568zM265.987 666.426c23.138 0 41.886 18.136 41.886 40.495v80.973c0 22.371-18.753 40.497-41.886 40.497-23.138 0-41.877-18.126-41.877-40.497v-80.978c-0.005-22.363 18.739-40.49 41.877-40.49zM684.846 666.426c23.133 0 41.881 18.136 41.881 40.495v80.973c0 22.371-18.763 40.497-41.881 40.497-23.139 0-41.892-18.126-41.892-40.497v-80.978c0-22.363 18.763-40.49 41.892-40.49zM475.414 666.426c23.138 0 41.881 18.136 41.881 40.495v80.973c0 22.371-18.753 40.497-41.881 40.497s-41.881-18.126-41.881-40.497v-80.978c-0.001-22.363 18.743-40.49 41.881-40.49zM529.271 99.569h-312.15c-19.279 0-34.902 15.121-34.902 33.744 0 18.633 15.623 33.735 34.902 33.735h311.394c4.659 34.511 16.969 66.587 35.172 94.48H224.105c-23.143 0-41.886 18.126-41.886 40.482 0 22.371 18.749 40.497 41.886 40.497h431.023c30.537 14.977 64.846 23.428 101.151 23.428 45.692 0 88.234-13.39 124.024-36.373V706.917c0 22.361-18.744 40.492-41.877 40.492h-69.813v-40.492c0-44.728-37.507-80.982-83.768-80.982-46.267 0-83.778 36.255-83.778 80.982v40.497h-41.881v-40.492c0-44.728-37.502-80.982-83.773-80.982-46.256 0-83.768 36.255-83.768 80.982v40.492h-41.886v-40.492c0-44.728-37.502-80.982-83.768-80.982-46.256 0-83.768 36.255-83.768 80.982v40.492H112.4c-23.138 0-41.882-18.126-41.882-40.492v-701.828c0-22.352 18.753-40.479 41.882-40.479h490.703c-38.5 34.43-65.332 81.637-73.832 134.954zM224.105 517.97h502.631c23.138 0 41.882-18.136 41.882-40.498 0-22.354-18.749-40.485-41.882-40.485H224.105c-23.143 0-41.886 18.131-41.886 40.485 0 22.361 18.748 40.498 41.886 40.498z"  horiz-adv-x="1024" />

    
    <glyph glyph-name="zhongyaogaojing" unicode="&#58890;" d="M435.205 640.01c-6.003-2.861-11.799-6.004-17.375-9.525-7.532-4.659-9.794-14.466-5.16-21.949a15.921 15.921 0 0 1 13.524-7.52c2.897 0 5.796 0.758 8.413 2.36a144.277 144.277 0 0 0 14.355 7.85c7.948 3.79 11.286 13.303 7.483 21.252-3.791 7.948-13.28 11.409-21.24 7.532zM876.832 130.556c-14.99 5.918-78.966 36.462-78.966 127.729V500.028c0 117.557-95.865 226.016-215.183 258.371v1.993c0 39.557-32.195 71.74-71.728 71.74-0.123 0-0.269-0.012-0.392-0.012-0.147 0-0.256 0.012-0.416 0.012-39.532 0-71.728-32.183-71.728-71.74v-1.993c-119.3-32.354-215.189-140.813-215.189-258.371v-241.743c0-91.268-63.981-121.812-78.985-127.729-10.913-5.551-18.415-16.825-18.415-29.934 0-18.561 15.028-33.675 33.632-33.675h702.182c18.623 0 33.639 15.114 33.639 33.675-0.011 13.108-7.518 24.383-18.451 29.934z m-346.508 0.172H245.511c23.526 30.422 41.47 72.203 41.47 127.57V463.405c0.263-0.073 0.525-0.122 0.789-0.207v36.817c0 105.048 108.221 204.361 222.795 204.606 114.536-0.245 222.764-99.558 222.764-204.606v-36.817c0.269 0.085 0.538 0.134 0.795 0.207v-205.12c0-55.367 17.938-97.136 41.464-127.558H530.324v0.001zM392.249 589.828c-7.104 5.283-17.07 3.815-22.364-3.167-22.97-30.582-35.075-66.922-35.075-105.22v-159.425c0-8.791 7.11-15.944 15.939-15.944 8.816 0 15.92 7.153 15.92 15.944V481.441c0 31.352 9.953 61.09 28.686 86.059 5.332 7.08 3.901 17.058-3.106 22.328zM615.221 51.051H569.6c-2.006-0.183-3.79-0.904-5.308-2.03-0.194 0.368-0.439 0.661-0.647 1.003-3.045-1.124-5.588-3.252-6.407-6.529-3.583-22.181-22.39-39.397-45.413-40.18-23.025 0.782-41.832 17.999-45.402 40.18-0.807 3.277-3.351 5.405-6.432 6.529-0.196-0.342-0.416-0.635-0.612-1.003a10.465 10.465 0 0 1-5.331 2.03h-45.609c-4.769-0.293-8.241-3.875-8.975-8.462 4.414-57.506 52.09-103.079 110.685-103.079 0.563 0 1.125 0.049 1.688 0.049 0.562 0 1.113-0.049 1.675-0.049 58.607 0 106.296 45.586 110.697 103.079-0.734 4.598-4.231 8.169-8.988 8.462z"  horiz-adv-x="1024" />

    
    <glyph glyph-name="zhongdianrenyuan-shewenrenyuan" unicode="&#58934;" d="M449.698779 359.44582c2.998377 4.515628 8.254569 7.47788 15.804699 9.031256h230.297044v27.09377h-207.718902c-16.581387 1.481126-25.612644 11.289071-27.09377 29.351584 1.481126 16.509137 10.512383 25.540394 27.09377 27.09377h207.718902v22.578141h-237.070486c0-18.062513-8.290694-27.870458-24.835956-29.351584h-38.38284c13.546885-22.578142 27.834333-45.156283 42.898469-67.734424 7.514006-9.031257 11.289071-15.100261 11.28907-18.062513zM646.128611 573.938164h-88.054752c-9.031257-13.546885-20.320327-27.870458-33.867213-42.898469h94.828195l27.09377 42.898469zM773.906442 862.656601h-523.812884c-119.7364 0-216.750159-97.013759-216.750159-216.750159v-523.812884c0-119.7364 97.013759-216.750159 216.750159-216.750159h523.812884c119.7364 0 216.750159 97.013759 216.750159 216.750159v523.812884c0 119.7364-97.013759 216.750159-216.750159 216.750159zM393.253426 359.44582v-216.750159c-1.517251-18.062513-11.289071-27.798208-29.351584-29.351584-19.579764 1.553376-30.128272 11.289071-31.609399 29.351584v162.562619c-7.550131-21.097015-18.062513-44.451845-31.609398-69.992239l-2.257814-2.257814c-9.031257-12.065759-22.578142-13.546885-40.640655-4.515628-13.546885 9.031257-16.581387 21.024765-9.031256 36.125026 33.090524 60.184294 58.703168 120.372201 76.765681 180.625132H273.589275c-16.581387 1.481126-25.612644 11.993509-27.093769 31.609399 1.481126 18.062513 11.289071 27.798208 29.351584 29.351584h56.445353V562.649093c-1.517251 0-3.775065-0.776688-6.773442-2.257814-15.064136-1.553376-27.870458-2.257814-38.382841-2.257814-18.062513 0-28.611021 9.031257-31.609398 27.09377 0 21.024765 8.254569 32.313836 24.835956 33.867212 60.184294 5.996754 106.117265 15.028011 137.726663 27.09377 16.545262 4.515628 29.351584-0.776688 38.382841-15.804699 7.514006-19.615889 3.73894-33.162774-11.289071-40.640655-13.546885-6.069004-30.128272-11.289071-49.671911-15.804699v-67.734424h47.414097c-4.515628 9.031257-0.776688 20.320327 11.289071 33.867212 12.029634 15.028011 27.834333 36.125026 47.414097 63.218796 15.031624 19.543639 26.320694 33.867212 33.867212 42.898469 21.06089 15.028011 38.382841 9.735695 51.929726-15.804699h101.601637c31.609398-3.034502 41.381218-18.062513 29.351584-45.156283-10.548508-19.615889-21.837578-37.678403-33.867213-54.18754h29.351584c30.092147 1.481126 44.379595-13.546885 42.898469-45.156283v-126.437592c2.998377-34.6439-12.806322-50.448599-47.414097-47.414098h-108.375079c15.028011-15.100261 29.351584-30.128272 42.898469-45.156283 10.512383-24.131518 5.256191-39.936217-15.804699-47.414097-18.062513 2.962252-40.640655 22.578142-67.734425 58.703168-4.515628 16.509137-0.776688 27.798208 11.289071 33.867212h-101.601637c-9.031257 0-16.581387 3.73894-22.578142 11.289071-13.546885-9.031257-30.128272 0.704438-49.671911 29.351584-1.517251 2.962252-3.034502 5.220066-4.515628 6.773443z m63.218796-212.234531c-9.031257-15.028011-22.578142-19.543639-40.640655-13.546885-15.064136 6.069004-19.579764 18.062513-13.546885 36.125027 5.996754 11.993509 12.029634 30.056022 18.062513 54.187539 5.996754 16.509137 10.512383 29.351584 13.546885 38.382841 7.514006 15.028011 19.543639 19.543639 36.125027 13.546885 13.546885-6.069004 18.803076-18.062513 15.804699-36.125027-4.515628-24.131518-14.323573-54.964228-29.351584-92.57038z m298.031468-22.578141c-13.546885 0-23.35483 6.773442-29.351584 20.320327-1.517251 4.515628-4.515628 12.842447-9.031256 24.835956-4.515628 10.512383-8.290694 18.062513-11.289071 22.578141-4.515628-40.640655-30.128272-60.184294-76.765681-58.703168h-56.445354c-52.706414 0-78.282932 18.062513-76.765682 54.18754v76.765681c1.481126 15.028011 11.289071 22.578142 29.351584 22.578142 18.062513-1.553376 27.834333-9.807945 29.351584-24.835956v-58.703168c1.481126-12.065759 6.773442-18.062513 15.8047-18.062513h58.703168c10.512383 0 18.803076 10.512383 24.835955 31.609398 1.481126 1.481126 2.257814 2.962252 2.257814 4.515628 7.514006 11.993509 18.062513 15.804699 31.609399 11.289071-7.550131 18.062513-4.515628 32.313836 9.031256 42.898469 18.062513 7.47788 31.609398 3.73894 40.640655-11.289071 28.574896-60.256544 42.898469-98.567135 42.898469-115.148522-1.517251-13.546885-9.804332-21.805066-24.835956-24.835955z"  horiz-adv-x="1024" />

    
    <glyph glyph-name="jingxuan" unicode="&#58903;" d="M993.779876 865.82254L541.345518 895.985779 30.220124 384.846163c-40.288758-40.302979-40.288758-105.862871 0-146.151628l336.431747-336.431748c19.511534-19.511534 45.465287-30.262787 73.068704-30.262787s53.55717 10.751253 73.082925 30.262787L1023.928894 413.402403 993.779876 865.82254zM478.786307-63.720019c-20.876772-20.84833-57.268912-20.84833-78.131464 0L64.223096 272.697507a55.320603 55.320603 0 0 0 0 78.131463L559.932671 846.538546l388.652122-25.91109 25.896868-388.652121-495.695354-495.695354zM693.270967 704.667509c-76.837331 0-139.353878-62.516547-139.353878-139.353878s62.516547-139.353878 139.353878-139.353878 139.353878 62.516547 139.353878 139.353878-62.516547 139.353878-139.353878 139.353878z m0-230.611541a91.34299 91.34299 0 0 0-91.257662 91.257663 91.34299 91.34299 0 0 0 91.257662 91.257663 91.357211 91.357211 0 0 0 91.257663-91.257663 91.371433 91.371433 0 0 0-91.257663-91.257663z"  horiz-adv-x="1024" />

    
    <glyph glyph-name="shenghuo" unicode="&#58967;" d="M682.677 812.93c-98.867-62.079-174.742-181.64-174.742-181.64s-151.75 206.931-301.2 211.53-121.193-0.268-114.962-55.181-2.966-219.253 193.136-308.098c103.621-46.946 248.318-27.591 248.318-27.591s-31.242 43.219 143.418 29.544c54.317-4.253 173.877 41.732 206.066 108.41s45.985 250.617 45.985 250.617S781.545 875.01 682.677 812.93zM250.421 348.484l-6.898-269.011s-4.598-89.67 64.109-111.692c37.689-12.08 402.636-10.168 402.636-10.168s78.174 4.598 89.67 68.977c14.573 81.609-11.496 317.295-11.496 317.295l-538.021 4.599zM837.474 350.05l4.977-1.134-4.977 1.134zM720.276-60.748h-387.98c-59.323 0-107.59 48.267-107.59 107.59V350.114c0 12.418 10.068 22.486 22.486 22.486h254.06V491.423a22.478 22.478 0 0 0 7.905 17.117c5.018 4.282 11.66 6.105 18.171 5.084 34.29-5.545 87.585-8.037 114.464-8.037 91.285 0 161.336 26.856 208.154 79.823 79.647 90.089 64.253 221.472 63.573 227.017l-0.285 2.273-2.218 0.384c-0.329 0.055-26.044 4.447-64.297 4.447-44.292 0-110.083-5.984-171.877-34.509-45.083-20.818-85.62-71.302-120.47-150.038-5.808-13.088-10.914-25.824-15.383-37.748-3.371-9.025-11.836-15.35-21.784-14.581a22.47 22.47 0 0 0-20.796 15.965c-7.181 23.705-16.371 45.742-27.329 65.472-20.334 36.661-47.114 66.23-79.603 87.882C248.532 845.947 116.611 812.59 114.228 812.041l-2.009-0.527-0.198-2.119c-0.176-1.889-4.183-46.916 5.896-104.681 5.534-31.753 39.461-112.839 92.812-156.406C250.19 514.699 319.703 488.6 369.342 488.6c12.418 0 22.486-10.068 22.486-22.486s-10.068-22.486-22.486-22.486c-59.905 0-140.475 30.161-187.413 70.149-66.537 54.328-102.287 148.6-108.326 183.208-11.078 63.605-6.555 114.431-6.357 116.561l1.658 17.864A22.484 22.484 0 0 0 85.67 851.108l17.381 4.491c7.378 1.878 153.727 38.89 311.374-66.208 38.517-25.671 70.138-60.487 93.986-103.484a351.68 351.68 0 0 0 10.442-20.389c38.33 82.084 84.423 135.995 137.148 160.326 69.216 31.951 141.902 38.66 190.718 38.66 42.535 0 70.841-4.908 72.027-5.117l18.6-3.206c9.772-1.68 17.282-9.574 18.49-19.423l2.306-18.808c0.791-6.313 18.446-157.197-74.508-262.328-55.733-63.046-137.093-95.008-241.839-95.008-22.267 0-61.816 1.647-95.568 5.215V372.6H805.37c12.429 0 22.486-10.068 22.486-22.486v-303.271c-0.001-59.324-48.268-107.591-107.58-107.591zM269.679 327.627v-280.784c0-34.531 28.086-62.617 62.617-62.617h387.98c34.52 0 62.606 28.086 62.606 62.617V327.627H523.739c-1.307 0-2.591 0.11-3.843 0.329a22.19 22.19 0 0 0-3.843-0.329H269.679z"  horiz-adv-x="1024" />

    
    <glyph glyph-name="iconfont-shangyi" unicode="&#58935;" d="M730.973 542.068v-506.019h67.377v506.019h168.441l-202.127 202.128-202.128-202.128h168.442zM57.211 788.546h101.066v-67.377h-101.066v67.377zM191.963 788.546h101.066v-67.377h-101.066v67.377zM326.714 788.546h67.377v-101.066h-67.377v101.066zM57.211 552.729h67.376v-101.066h-67.376v101.066zM158.275 519.039h101.066v-67.376h-101.066v67.376zM293.027 519.039h101.066v-67.376h-101.066v67.376zM57.211 687.481h67.376v-101.066h-67.376v101.066zM326.714 653.791h67.377v-101.065h-67.377v101.065zM326.714 249.535v-202.126h-202.127v202.126h202.127zM394.092 316.911h-336.881v-336.879h336.881v336.879z"  horiz-adv-x="1024" />

    
    <glyph glyph-name="gongjiaoche" unicode="&#58902;" d="M972.8 614.4H48c-25.6 0-48-22.4-48-48v-361.6c0-25.6 22.4-48 48-48h57.6c0-67.2 54.4-118.4 118.4-118.4s118.4 54.4 118.4 118.4h352c0-67.2 54.4-118.4 118.4-118.4 67.2 0 118.4 54.4 118.4 118.4h41.6c22.4 0 41.6 12.8 48 35.2V569.6c0 22.4-22.4 44.8-48 44.8zM48 374.4V544h128v-169.6h-128zM224 96c-35.2 0-60.8 28.8-60.8 60.8 0 35.2 28.8 60.8 60.8 60.8 35.2 0 60.8-28.8 60.8-60.8 0-35.2-25.6-60.8-60.8-60.8z m115.2 278.4h-128V544h128v-169.6z m160-179.2H384v352h115.2v-352z m140.8 0h-115.2V544H640v-348.8z m44.8 179.2V544h128v-169.6h-128z m128-278.4c-35.2 0-60.8 28.8-60.8 60.8 0 35.2 28.8 60.8 60.8 60.8 35.2 0 60.8-28.8 60.8-60.8 3.2-35.2-25.6-60.8-60.8-60.8z m160 208h-48l-76.8 73.6v169.6h121.6v-243.2h3.2z"  horiz-adv-x="1024" />

    
    <glyph glyph-name="daolu" unicode="&#58945;" d="M729.6 441.6C796.8 720 403.2 838.4 403.2 838.4H316.8s288-99.2 192-348.8C409.6 240 0-70.4 0-70.4h358.4s304 230.4 371.2 512zM534.4 838.4H448s387.2-118.4 323.2-419.2c-60.8-281.6-310.4-489.6-310.4-489.6H832s192 163.2 192 467.2C1024 697.6 534.4 838.4 534.4 838.4z"  horiz-adv-x="1024" />

    
    <glyph glyph-name="weibofang-xue" unicode="&#58927;" d="M808.256 384c0 17.664-13.248 32-29.376 32h-529.856c-16.256 0-29.44-14.336-29.44-32s13.184-32 29.44-32h529.856c16.128 0 29.376 14.336 29.376 32zM135.872 153.152c0-0 0-0 0-0 0-16.259 13.181-29.44 29.44-29.44 16.259 0 29.44 13.181 29.44 29.44 0 0 0 0 0 0 0 0 0 0 0 0 0 16.259-13.181 29.44-29.44 29.44-16.259 0-29.44-13.181-29.44-29.44 0-0 0-0 0-0zM513.92 832.128c-247.544-0.308-448.098-201.053-448.098-448.64 0-25.379 2.107-50.266 6.157-74.496 1.891-11.446 13.942-22.067 28.474-22.067 1.774 0 3.511 0.158 5.197 0.461 13.918 2.335 24.526 14.443 24.526 29.030 0 1.672-0.139 3.312-0.407 4.908-3.169 18.567-4.993 40.152-4.993 62.164 0 215.042 174.151 389.409 389.112 389.759 214.626 0 389.218-174.656 389.218-389.248s-174.656-389.248-389.184-389.248c-0.092-0-0.201-0-0.31-0-77.254 0-149.243 22.543-209.747 61.409-2.923 1.946-8.377 3.654-14.231 3.654-16.263 0-29.447-13.184-29.447-29.447 0-10.409 5.401-19.557 13.553-24.794 67.96-43.787 150.818-69.767 239.743-69.767 0.154 0 0.308 0 0.462 0 247.016-0 448.040 201.024 448.040 448.128 0 247.168-200.96 448.192-448.064 448.192z"  horiz-adv-x="1024" />

    
    <glyph glyph-name="xiangxia" unicode="&#58975;" d="M512-64c-247.04 0-448 201.024-448 448 0 247.04 200.96 448 448 448 246.976 0 448-200.96 448-448 0-246.976-201.024-448-448-448zM512 768.064A384.512 384.512 0 0 1 127.936 384 384.448 384.448 0 0 1 512 0.064 384.384 384.384 0 0 1 895.936 384 384.448 384.448 0 0 1 512 768.064zM694.656 373.824a32.768 32.768 0 0 1-46.08 0.064L543.936 270.016V576.704a32 32 0 1 1-63.936 0v-308.352L374.72 375.104a32 32 0 1 1-45.504-45.248l159.36-161.088a32.576 32.576 0 0 1 22.912-9.536 32.832 32.832 0 0 1 22.656 9.344l0.064 0.064 0.128 0.128 160.192 159.552a32.192 32.192 0 0 1 0.128 45.504z"  horiz-adv-x="1024" />

    
    <glyph glyph-name="beijingyanse" unicode="&#58941;" d="M896 512c-46.72 46.72-160.64 25.6-219.52 10.24L448.64 743.04l-21.76-21.76L313.6 830.72 223.36 743.04 336.64 633.6 66.56 371.84v-2.56L448.64 0l359.68 349.44L960 202.88S960 448 896 512zM194.56 371.84l255.36 247.68 254.72-247.68H194.56z"  horiz-adv-x="1024" />

    
    <glyph glyph-name="qingtian" unicode="&#58932;" d="M512 672c-159.06 0-288-128.94-288-288s128.94-288 288-288 288 128.94 288 288-128.94 288-288 288z m0-512c-123.71 0-224 100.29-224 224s100.29 224 224 224 224-100.29 224-224-100.29-224-224-224zM512 832a32 32 0 0 1-32-32v-64a32 32 0 0 1 64 0V800a32 32 0 0 1-32 32zM512 64a32 32 0 0 1-32-32v-64a32 32 0 0 1 64 0v64a32 32 0 0 1-32 32zM195.22 700.78a32 32 0 0 1 0-45.25l45.25-45.25a32 32 0 0 1 45.25 45.25l-45.25 45.25a32 32 0 0 1-45.25 0zM738.27 157.73a32 32 0 0 1 0-45.25l45.25-45.25a32 32 0 0 1 45.25 45.25l-45.25 45.25a32 32 0 0 1-45.25 0zM64 384a32 32 0 0 1 32-32h64a32 32 0 0 1 0 64H96a32 32 0 0 1-32-32zM832 384a32 32 0 0 1 32-32h64a32 32 0 0 1 0 64h-64a32 32 0 0 1-32-32zM195.22 67.22a32 32 0 0 1 45.25 0l45.25 45.25a32 32 0 0 1-45.25 45.25l-45.25-45.25a32 32 0 0 1 0-45.25zM738.27 610.27a32 32 0 0 1 45.25 0l45.25 45.25a32 32 0 0 1-45.25 45.25l-45.25-45.25a32 32 0 0 1 0-45.25z"  horiz-adv-x="1024" />

    
    <glyph glyph-name="youjiandakai" unicode="&#58906;" d="M382.6 305.8L140.1 494.5c-5.9 4.6-14.5 0.4-14.5-7.1v-388.6c0-15.8 3.9-30.7 10.7-43.8 2.8-5.5 10.2-6.6 14.5-2.2l232.8 239.7c3.6 3.8 3.2 10.1-1 13.3zM142.4 548.9l360.9-270.3a9 9 0 0 1 10.8 0L875 548.9c5.2 3.9 4.7 11.9-1 15.1L513 766.6c-2.7 1.5-6.1 1.5-8.8 0L143.3 564c-5.6-3.2-6.1-11.2-0.9-15.1z m449.5-282.3c-3.1 3.2-8 3.7-11.6 1.2L513.7 222c-3.1-2.1-7.1-2.1-10.2 0l-66.6 45.8c-3.6 2.5-8.5 2-11.6-1.2L190.6 21.9c-4.6-4.8-2.6-12.9 3.9-14.8 8.5-2.6 17.5-4 26.9-4H796c9.4 0 18.4 1.4 26.9 4 6.4 1.9 8.5 10 3.9 14.8L591.9 266.6z m285.4 220.8L634.9 305.8c-4.3-3.3-4.8-9.6-1.1-13.5l232.7-239.5c4.3-4.4 11.6-3.3 14.5 2.2 6.8 13.1 10.7 28 10.7 43.8V480.2c0 7.4-8.5 11.6-14.4 7.2z"  horiz-adv-x="1024" />

    
    <glyph glyph-name="quanxianyuechi" unicode="&#59555;" d="M830.4 382.4c-72 72-180 84.8-264.8 38.4L335.2 651.2 448 764l-45.6 45.6-144.8-80.8L154.4 832 64 741.6l411.2-411.2c-45.6-84.8-32.8-192.8 38.4-264.8 87.2-87.2 229.6-87.2 316.8 0 88 87.2 88 228.8 0 316.8zM740 156c-37.6-37.6-98.4-37.6-136 0s-37.6 98.4 0 136 98.4 37.6 136 0 37.6-98.4 0-136z"  horiz-adv-x="1024" />

    
    <glyph glyph-name="tianjia" unicode="&#59332;" d="M510.833431 833.304076c-247.644193 0-448.406636-200.762443-448.406636-448.406636 0-247.65545 200.762443-448.416869 448.406636-448.416869 247.65545 0 448.416869 200.76142 448.416869 448.416869C959.2503 632.541633 758.488881 833.304076 510.833431 833.304076zM779.544429 333.887672 560.358381 333.887672l0-219.186048-102.008278 0L458.350103 333.887672 239.164055 333.887672l0 102.008278 219.186048 0L458.350103 655.081998l102.008278 0 0-219.186048 219.186048 0L779.544429 333.887672z"  horiz-adv-x="1024" />

    
    <glyph glyph-name="shanchu" unicode="&#58996;" d="M224 640v-639.84c-0-0.048-0-0.104-0-0.16 0-35.29 28.563-63.909 63.831-64l448.329-0c35.277 0.091 63.84 28.71 63.84 64 0 0.056-0 0.113-0 0.169l0 639.831h64c17.673 0 32 14.327 32 32s-14.327 32-32 32h-704c-17.673 0-32-14.327-32-32s14.327-32 32-32h64zM384 800c0 17.664 14.496 32 31.904 32h192.192c17.6 0 31.904-14.208 31.904-32 0-17.664-14.496-32-31.904-32h-192.192c-0.010-0-0.021-0-0.032-0-17.602 0-31.872 14.27-31.872 31.872 0 0.045 0 0.090 0 0.135zM288 608.256c0 17.536 14.4 31.744 32.224 31.744h383.552c17.824 0 32.224-14.56 32.224-31.744v-576.512c0-17.536-14.4-31.744-32.224-31.744h-383.552c-0.001-0-0.002-0-0.004-0-17.628 0-31.95 14.155-32.22 31.719l-0 576.537zM352 544c0 17.696 14.208 32.032 32 32.032 17.664 0 32-14.24 32-32v-448c0-17.664-14.208-32-32-32-17.664 0-32 14.24-32 32v447.968zM480 544c0 17.696 14.208 32.032 32 32.032 17.664 0 32-14.24 32-32v-448c0-17.664-14.208-32-32-32-17.664 0-32 14.24-32 32v447.968zM608 544c0 17.696 14.208 32.032 32 32.032 17.664 0 32-14.24 32-32v-448c0-17.664-14.208-32-32-32-17.664 0-32 14.24-32 32v447.968z"  horiz-adv-x="1024" />

    
    <glyph glyph-name="shengqi" unicode="&#59100;" d="M940.912 663.71C887.956 744.75 813.6 808.934 725.88 849.318c-10.048 4.62-21.928 0.23-26.55-9.81-4.622-10.042-0.23-21.93 9.81-26.55 80.876-37.23 149.432-96.412 198.266-171.144C957.498 565.15 983.974 476 983.974 384c0-260.248-211.726-471.968-471.97-471.968S40.03 123.752 40.03 383.998 251.752 855.97 512 855.97a20.01 20.01 0 0 1 20.014 20.014C532.014 887.042 523.056 896 512 896 229.68 896 0 666.316 0 383.998S229.68-128 512-128s512 229.68 512 511.998c0 99.8-28.73 196.522-83.088 279.712zM820.582 113.524c-31.52 56.586-91.3 91.736-156.01 91.736-62.886 0.002-122.902-34.938-156.624-91.182-5.684-9.482-2.608-21.774 6.874-27.458 9.474-5.678 21.77-2.604 27.458 6.874 26.528 44.248 73.39 71.738 122.292 71.738 50.202 0 96.58-27.278 121.04-71.186a20 20 0 0 1 27.226-7.748c9.656 5.384 13.124 17.57 7.744 27.226zM582.144 429.634a19.988 19.988 0 0 1-5.59 7.218c-19.58 15.886-48.996 30.916-83.056 48.312-7.96 4.064-16.242 8.294-24.784 12.73-12.702 6.596-22.744 12.524-33.38 18.8-13.108 7.736-26.662 15.74-46.272 25.67-9.86 4.998-21.904 1.054-26.9-8.812-4.996-9.86-1.048-21.904 8.812-26.898 18.458-9.35 31.45-17.018 44.01-24.432 10.624-6.274 21.614-12.758 35.28-19.854 3.682-1.914 7.318-3.786 10.898-5.626a83.546 83.546 0 0 1-19.97-29.214c-8.372-20.572-8.212-43.224 0.442-62.15 8.58-18.764 23.954-33.064 43.29-40.266a77.236 77.236 0 0 1 27.002-4.9c10.938 0 21.842 2.354 32.084 7.04 18.764 8.58 33.068 23.956 40.27 43.29 7.206 19.34 6.448 40.322-2.136 59.092z m-35.372-45.118a36.99 36.99 0 0 0-19.404-20.86 37 37 0 0 0-28.466-1.03 36.98 36.98 0 0 0-20.858 19.404c-4.086 8.932-4.002 20.018 0.23 30.412 4.478 11.002 12.758 19.344 23.338 23.516 18.424-9.672 34.268-18.592 45.734-27.102a36.926 36.926 0 0 0-0.574-24.34zM953.25 546.2c-5.59 9.538-17.854 12.732-27.39 7.142l-6.258-3.67c-41.192-24.164-44.558-26.14-95.216-50.632-33.752-16.318-61.538-32.474-82.572-48.014a19.994 19.994 0 0 1-6.308-7.774c-8.582-18.766-9.34-39.752-2.14-59.088 7.202-19.334 21.506-34.71 40.27-43.29 10.244-4.686 21.148-7.04 32.084-7.04 9.098 0 18.218 1.628 27.002 4.9 19.334 7.202 34.71 21.506 43.29 40.27 9.612 21.02 9.7 46.284 0.232 67.578a77.366 77.366 0 0 1-17.38 24.69c36.658 17.864 44.462 22.44 80.996 43.87l6.252 3.67c9.532 5.588 12.728 17.85 7.138 27.388z m-113.642-150.548a36.982 36.982 0 0 0-20.86-19.404 37.018 37.018 0 0 0-28.466 1.03 36.982 36.982 0 0 0-19.404 20.86 36.93 36.93 0 0 0-0.676 24.018c13.118 9.274 29.03 18.868 47.536 28.678 12.758-5.084 18.952-13.812 21.93-20.512 4.8-10.806 4.776-24.092-0.06-34.67zM646.262 855.97m-20.014 0a20.014 20.014 0 1 1 40.028 0 20.014 20.014 0 1 1-40.028 0Z"  horiz-adv-x="1024" />

    
    <glyph glyph-name="shangxiajiantou" unicode="&#59053;" d="M963.916 362.128l-432.148 436.125c-14.581 15.244-39.105 15.244-54.351 0l-431.485-433.473c-20.547-20.547-19.884-53.687 1.326-73.571 23.198-24.524 54.351-15.244 72.909 3.314l365.869 367.194c9.28 9.28 25.187 9.28 34.465 0l369.182-370.508c18.558-18.558 47.722-21.872 68.269-5.966 25.187 19.221 27.174 55.012 5.966 76.884zM428.371 378.034c0 41.757 33.804 74.896 74.896 74.896s74.896-33.804 74.896-74.896c0-41.757-33.804-74.896-74.896-74.896-41.093 0-74.896 33.804-74.896 74.896zM428.371 127.494c0 41.757 33.804 74.896 74.896 74.896s74.896-33.804 74.896-74.896c0-41.757-33.804-74.896-74.896-74.896-41.093 0-74.896 33.804-74.896 74.896z"  horiz-adv-x="1024" />

    
    <glyph glyph-name="web__yiwen" unicode="&#58951;" d="M254.46-57.214H63.98V828.115h190.48v-64.733H144.082v-756.33h110.376v-64.266z m190.946 281.758c-7.766 22.974-11.644 47.503-11.644 73.584 0 20.49 4.66 41.215 13.97 62.171 9.317 20.956 33.066 49.904 71.258 86.858 39.12 36.945 63.104 64.734 71.95 83.363 8.85 18.63 13.273 36.325 13.273 53.09 0 29.806-10.56 53.325-31.667 70.555-21.118 17.236-47.97 25.85-80.57 25.85-56.815 0-106.493-22.354-149.03-67.065v95.474c51.849 32.285 105.719 48.436 161.606 48.436 57.12 0 102.993-14.437 137.616-43.311 34.617-28.874 51.931-68.308 51.931-118.296 0-23.911-5.124-48.2-15.37-72.882-10.244-24.687-36.954-57.518-80.103-98.502-32.6-30.734-54.49-54.803-65.667-72.185-11.177-17.392-16.769-36.174-16.769-56.355 0-22.664 5.43-46.266 16.303-70.786h-87.087z m-11.644-152.288c0 16.14 5.895 30.037 17.696 41.681 11.796 11.64 25.924 17.46 42.383 17.46 16.45 0 30.578-5.82 42.379-17.46 11.795-11.644 17.697-25.542 17.697-41.681 0-15.533-5.822-29.11-17.466-40.754-11.64-11.644-25.075-17.461-40.283-17.461-18.629 0-33.69 5.9-45.176 17.696-11.487 11.797-17.23 25.3-17.23 40.519z m526.258-129.47H769.074v64.267h110.843V763.382H769.074V828.115H960.02v-885.329z"  horiz-adv-x="1024" />

    
    <glyph glyph-name="kaishi" unicode="&#59064;" d="M512-93.866667C248.081067-93.866667 34.133333 120.08106699999996 34.133333 384S248.081067 861.866667 512 861.866667s477.866667-213.947733 477.866667-477.866667-213.947733-477.866667-477.866667-477.866667z m0 68.266667c226.2016 0 409.6 183.3984 409.6 409.6S738.2016 793.6 512 793.6 102.4 610.2016 102.4 384s183.3984-409.6 409.6-409.6z m-61.2352 137.352533A33.792 33.792 0 0 0 409.6 144.69119999999998V623.274667a33.655467 33.655467 0 0 0 49.2544 30.0032 33.416533 33.416533 0 0 0 9.5232-6.690134l238.592-238.830933a34.065067 34.065067 0 0 0 0-47.9232l-238.592-238.865067a33.4848 33.4848 0 0 0-17.6128-9.250133z m26.350933 430.523734v-316.893867l158.276267 158.446933-158.276267 158.446934z"  horiz-adv-x="1024" />

    
    <glyph glyph-name="xiangqingchakan" unicode="&#59078;" d="M828.128 144.25599999999997l122.592-122.624a31.392 31.392 0 1 0-44.448-44.448L783.68 99.84000000000003a192 192 0 1 0 44.48 44.48zM864 425.28a257.152 257.152 0 0 1-64 52.448v258.24C800 753.696 785.792 768 768.256 768H191.744C174.56 768 160 753.664 160 736v-704c0-17.696 14.208-32 31.744-32h576.512c17.184 0 31.744 14.336 31.744 32v2.272l2.336 1.376 57.792-57.792A64.16 64.16 0 0 0 799.84-64H160.16C124.736-64 96-35.200000000000045 96-0.2880000000000109V768.3199999999999C96 803.488 124.704 832 160.16 832h639.68C835.264 832 864 803.2 864 768.288V425.28z m-193.12-296.16a128 128 0 1 1 0 256 128 128 0 0 1 0-256zM224 608c0 17.664 14.592 32 32.064 32h319.872A31.968 31.968 0 0 0 608 608c0-17.664-14.592-32-32.064-32H256.064A31.968 31.968 0 0 0 224 608z m0-128c0 17.664 14.496 32 31.904 32h192.192c17.6 0 31.904-14.208 31.904-32 0-17.664-14.496-32-31.904-32H255.904A31.872 31.872 0 0 0 224 480z"  horiz-adv-x="1024" />

    
    <glyph glyph-name="jingxuan1" unicode="&#59520;" d="M753.92 768h1.664c-0.491 0-0.853-0.021-1.216 0.128 0.384-0.149 0.725-0.128 1.216-0.128h-1.685v0h-503.317l-142.080-237.653 344.576-448.128-133.355 429.781h-197.12l-14.080 18.347 14.549 24.32h183.403l-62.677 201.984 6.784 11.349h34.368l59.755-192.576 127.189 192.576h79.765l123.371-186.795 57.963 186.795h20.907l16.192-24.405-58.624-188.928h183.851l19.563-29.525-10.197-13.141h-206.443l-137.941-444.523-48.107-62.080v0l402.709 519.744-161.003 242.859zM215.509 792.512c5.973 10.027 20.395 18.155 32.085 18.155h507.947c11.733 0 26.539-7.979 33.024-17.771l166.997-251.925c6.485-9.813 6.016-25.173-1.365-34.709l-416.043-537.003c-14.421-18.603-37.824-18.475-52.203 0.235l-415.808 540.757c-7.253 9.429-8.256 25.237-2.283 35.221l147.669 247.040zM361.045 522.752l147.904-476.651 149.696 482.432-146.859 222.421-150.72-228.203z"  horiz-adv-x="1024" />

    
    <glyph glyph-name="fine_icon" unicode="&#58998;" d="M512 696.893c-172.524 0-312.893-140.36-312.893-312.893s140.37-312.893 312.893-312.893 312.893 140.37 312.893 312.893-140.37 312.893-312.893 312.893zM512 128c-141.169 0-256 114.831-256 256s114.831 256 256 256 256-114.831 256-256-114.831-256-256-256zM170.67 384c0 0.006 0 0.013 0 0.020 0 15.699-12.727 28.426-28.426 28.426-0.007 0-0.014-0-0.022-0l-113.776 0c-15.711-0-28.447-12.736-28.447-28.447 0-15.711 12.736-28.447 28.447-28.447h113.777c0.006-0 0.013-0 0.020-0 15.699 0 28.426 12.727 28.426 28.426 0 0.007-0 0.014-0 0.022zM995.553 412.447h-113.777c-0 0-0 0-0 0-15.711 0-28.447-12.736-28.447-28.447 0-15.711 12.736-28.447 28.447-28.447 0 0 0 0 0 0h113.777c15.711 0 28.447 12.736 28.447 28.447s-12.736 28.447-28.447 28.447zM230.472 142.694l-80.497-80.497c-5.147-5.147-8.33-12.257-8.33-20.111 0-15.708 12.734-28.442 28.442-28.442 7.854 0 14.964 3.183 20.111 8.33l80.497 80.497c5.147 5.147 8.33 12.257 8.33 20.111 0 15.708-12.734 28.442-28.442 28.442-7.854 0-14.964-3.183-20.111-8.33zM773.417 616.97c0.009-0 0.020-0 0.031-0 7.845 0 14.946 3.186 20.079 8.335l80.497 80.497c5.147 5.147 8.33 12.257 8.33 20.111 0 15.708-12.734 28.442-28.442 28.442-7.854 0-14.964-3.183-20.111-8.33l-80.497-80.497c-5.146-5.147-8.328-12.258-8.328-20.111 0-15.708 12.732-28.443 28.439-28.447zM512 42.67c-0.006 0-0.013 0-0.020 0-15.699 0-28.426-12.727-28.426-28.426 0-0.007 0-0.014 0-0.022l-0-113.776c0-0 0-0 0-0 0-15.711 12.736-28.447 28.447-28.447 15.711 0 28.447 12.736 28.447 28.447 0 0 0 0 0 0v113.777c0 0.006 0 0.013 0 0.020 0 15.699-12.727 28.426-28.426 28.426-0.007 0-0.014-0-0.022-0zM512 725.33c0.006-0 0.013-0 0.020-0 15.699 0 28.426 12.727 28.426 28.426 0 0.007-0 0.014-0 0.022l0 113.776c0 15.711-12.736 28.447-28.447 28.447s-28.447-12.736-28.447-28.447l0-113.777c-0-0.006-0-0.013-0-0.020 0-15.699 12.727-28.426 28.426-28.426 0.007 0 0.014 0 0.022 0zM793.528 142.694c-5.147 5.147-12.257 8.33-20.111 8.33-15.708 0-28.442-12.734-28.442-28.442 0-7.854 3.183-14.964 8.33-20.111l80.497-80.497c5.147-5.147 12.257-8.33 20.111-8.33 15.708 0 28.442 12.734 28.442 28.442 0 7.854-3.183 14.964-8.33 20.111zM230.472 625.306c5.147-5.147 12.257-8.33 20.111-8.33 15.708 0 28.442 12.734 28.442 28.442 0 7.854-3.183 14.964-8.33 20.111l-80.497 80.497c-5.147 5.147-12.257 8.33-20.111 8.33-15.708 0-28.442-12.734-28.442-28.442 0-7.854 3.183-14.964 8.33-20.111z"  horiz-adv-x="1024" />

    
    </font>
</defs>
</svg>
